<?xml version="1.0" encoding="UTF-8" standalone="no"?><svg xmlns="http://www.w3.org/2000/svg" xmlns:xlink="http://www.w3.org/1999/xlink" clip-rule="evenodd" stroke-miterlimit="10" viewBox="0 0 1024 768"><desc>SVG generated by Keynote</desc><defs><linearGradient id="gradSh1.141" x1="0.0" y1="0.0" x2="100.0" y2="0.0" gradientUnits="userSpaceOnUse" gradientTransform="matrix(0.00, -7.70, -10.26, 0.00, 512.0, 769.0)"><stop offset="0.00000" stop-color="#5A91D8"></stop><stop offset="0.00367" stop-color="#5A91D7"></stop><stop offset="0.18402" stop-color="#4D7FBF"></stop><stop offset="0.18475" stop-color="#4C7FBF"></stop><stop offset="0.66422" stop-color="#2A517F"></stop><stop offset="0.67082" stop-color="#29517F"></stop><stop offset="0.84824" stop-color="#1D3F67"></stop><stop offset="0.85117" stop-color="#1C3F67"></stop><stop offset="1.00000" stop-color="#123153"></stop></linearGradient></defs><g transform="matrix(1.00, 0.00, -0.00, -1.00, 0.0, 768.0)"><g><clipPath id="clip0x7fd553f3f9c0"><path d="M 0.0 768.0 L 1024.0 768.0 L 1024.0 0.0 L 0.0 0.0 Z M 0.0 768.0 "></path></clipPath><g clip-path="url(#clip0x7fd553f3f9c0)"><path d="M 0.0 768.0 L 1024.0 768.0 L 1024.0 0.0 L 0.0 0.0 Z M 0.0 768.0 " fill="url(#gradSh1.141)"></path></g></g><image xlink:href="../../F3EE9E7B-81B7-41C2-8E8C-5FCB1D20064E/assets/00C3C8853E287F800E3C37D8DCB6506F.png" width="386.00" height="66.00" transform="matrix(1.00, 0.00, -0.00, -1.00, 316.0, 701.0)"></image><text xml:space="preserve" font-family="HelveticaNeue-Bold,Helvetica Neue" font-weight="bold" font-size="64.0" fill="#FEFFFE" transform="matrix(1.00, 0.00, -0.00, -1.00, 320.7, 653.2)">A</text><text xml:space="preserve" font-family="HelveticaNeue-Bold,Helvetica Neue" font-weight="bold" font-size="64.0" fill="#FEFFFE" transform="matrix(1.00, 0.00, -0.00, -1.00, 364.6, 653.2)">p</text><text xml:space="preserve" font-family="HelveticaNeue-Bold,Helvetica Neue" font-weight="bold" font-size="64.0" fill="#FEFFFE" transform="matrix(1.00, 0.00, -0.00, -1.00, 403.7, 653.2)">p</text><text xml:space="preserve" font-family="HelveticaNeue-Bold,Helvetica Neue" font-weight="bold" font-size="64.0" fill="#FEFFFE" transform="matrix(1.00, 0.00, -0.00, -1.00, 442.8, 653.2)">l</text><text xml:space="preserve" font-family="HelveticaNeue-Bold,Helvetica Neue" font-weight="bold" font-size="64.0" fill="#FEFFFE" transform="matrix(1.00, 0.00, -0.00, -1.00, 459.3, 653.2)">i</text><text xml:space="preserve" font-family="HelveticaNeue-Bold,Helvetica Neue" font-weight="bold" font-size="64.0" fill="#FEFFFE" transform="matrix(1.00, 0.00, -0.00, -1.00, 475.8, 653.2)">c</text><text xml:space="preserve" font-family="HelveticaNeue-Bold,Helvetica Neue" font-weight="bold" font-size="64.0" fill="#FEFFFE" transform="matrix(1.00, 0.00, -0.00, -1.00, 512.5, 653.2)">a</text><text xml:space="preserve" font-family="HelveticaNeue-Bold,Helvetica Neue" font-weight="bold" font-size="64.0" fill="#FEFFFE" transform="matrix(1.00, 0.00, -0.00, -1.00, 549.3, 653.2)">t</text><text xml:space="preserve" font-family="HelveticaNeue-Bold,Helvetica Neue" font-weight="bold" font-size="64.0" fill="#FEFFFE" transform="matrix(1.00, 0.00, -0.00, -1.00, 571.8, 653.2)">i</text><text xml:space="preserve" font-family="HelveticaNeue-Bold,Helvetica Neue" font-weight="bold" font-size="64.0" fill="#FEFFFE" transform="matrix(1.00, 0.00, -0.00, -1.00, 588.3, 653.2)">o</text><text xml:space="preserve" font-family="HelveticaNeue-Bold,Helvetica Neue" font-weight="bold" font-size="64.0" fill="#FEFFFE" transform="matrix(1.00, 0.00, -0.00, -1.00, 627.4, 653.2)">n</text><text xml:space="preserve" font-family="HelveticaNeue-Bold,Helvetica Neue" font-weight="bold" font-size="64.0" fill="#FEFFFE" transform="matrix(1.00, 0.00, -0.00, -1.00, 665.4, 653.2)">s</text><text xml:space="preserve" font-family="HelveticaNeue,Helvetica Neue" font-size="14.0" fill="#EAEAEA" transform="matrix(1.00, 0.00, -0.00, -1.00, 504.2, 13.6)">4</text><text xml:space="preserve" font-family="HelveticaNeue,Helvetica Neue" font-size="14.0" fill="#EAEAEA" transform="matrix(1.00, 0.00, -0.00, -1.00, 512.0, 13.6)">9</text><image xlink:href="../../721A296F-AE50-43A3-B15C-157EC755E2FD/assets/73EACE759B0B4059543E5ADEF72650A0.png" width="700.00" height="483.00" transform="matrix(0.30, 0.00, -0.00, -0.30, 868.0, 750.0)"></image><image xlink:href="../../9C131460-BD99-4727-9528-6E7C53C23EDE/assets/95AB140FAE8D32C9DC685E8276AD80EA.png" width="192.00" height="192.00" transform="matrix(0.36, 0.00, -0.00, -0.36, 105.0, 490.0)"></image><image xlink:href="../../9C131460-BD99-4727-9528-6E7C53C23EDE/assets/2D4164AA7538A90FE99A8FF1826E2B32.png" width="18.00" height="18.00" transform="matrix(1.00, 0.00, -0.00, -1.00, 231.0, 497.0)"></image><text xml:space="preserve" font-family="HelveticaNeue-Medium,Helvetica Neue" font-size="24.8" fill="#FEFFFE" transform="matrix(1.00, 0.00, -0.00, -1.00, 233.7, 480.9)">•</text><image xlink:href="../../9C131460-BD99-4727-9528-6E7C53C23EDE/assets/805BADEE7665C85AA36DE2FEAF46A2F5.png" width="669.00" height="39.00" transform="matrix(1.00, 0.00, -0.00, -1.00, 262.0, 504.0)"></image><text xml:space="preserve" font-family="HelveticaNeue-Medium,Helvetica Neue" font-size="33.0" fill="#FEFFFE" transform="matrix(1.00, 0.00, -0.00, -1.00, 264.6, 477.8)">U</text><text xml:space="preserve" font-family="HelveticaNeue-Medium,Helvetica Neue" font-size="33.0" fill="#FEFFFE" transform="matrix(1.00, 0.00, -0.00, -1.00, 288.4, 477.8)">n</text><text xml:space="preserve" font-family="HelveticaNeue-Medium,Helvetica Neue" font-size="33.0" fill="#FEFFFE" transform="matrix(1.00, 0.00, -0.00, -1.00, 307.4, 477.8)"> </text><text xml:space="preserve" font-family="HelveticaNeue-Medium,Helvetica Neue" font-size="33.0" fill="#FEFFFE" transform="matrix(1.00, 0.00, -0.00, -1.00, 316.5, 477.8)">d</text><text xml:space="preserve" font-family="HelveticaNeue-Medium,Helvetica Neue" font-size="33.0" fill="#FEFFFE" transform="matrix(1.00, 0.00, -0.00, -1.00, 336.7, 477.8)">i</text><text xml:space="preserve" font-family="HelveticaNeue-Medium,Helvetica Neue" font-size="33.0" fill="#FEFFFE" transform="matrix(1.00, 0.00, -0.00, -1.00, 344.7, 477.8)">s</text><text xml:space="preserve" font-family="HelveticaNeue-Medium,Helvetica Neue" font-size="33.0" fill="#FEFFFE" transform="matrix(1.00, 0.00, -0.00, -1.00, 361.8, 477.8)">p</text><text xml:space="preserve" font-family="HelveticaNeue-Medium,Helvetica Neue" font-size="33.0" fill="#FEFFFE" transform="matrix(1.00, 0.00, -0.00, -1.00, 381.9, 477.8)">o</text><text xml:space="preserve" font-family="HelveticaNeue-Medium,Helvetica Neue" font-size="33.0" fill="#FEFFFE" transform="matrix(1.00, 0.00, -0.00, -1.00, 401.5, 477.8)">s</text><text xml:space="preserve" font-family="HelveticaNeue-Medium,Helvetica Neue" font-size="33.0" fill="#FEFFFE" transform="matrix(1.00, 0.00, -0.00, -1.00, 418.6, 477.8)">i</text><text xml:space="preserve" font-family="HelveticaNeue-Medium,Helvetica Neue" font-size="33.0" fill="#FEFFFE" transform="matrix(1.00, 0.00, -0.00, -1.00, 426.6, 477.8)">t</text><text xml:space="preserve" font-family="HelveticaNeue-Medium,Helvetica Neue" font-size="33.0" fill="#FEFFFE" transform="matrix(1.00, 0.00, -0.00, -1.00, 437.6, 477.8)">i</text><text xml:space="preserve" font-family="HelveticaNeue-Medium,Helvetica Neue" font-size="33.0" fill="#FEFFFE" transform="matrix(1.00, 0.00, -0.00, -1.00, 445.5, 477.8)">v</text><text xml:space="preserve" font-family="HelveticaNeue-Medium,Helvetica Neue" font-size="33.0" fill="#FEFFFE" transform="matrix(1.00, 0.00, -0.00, -1.00, 462.7, 477.8)">o</text><text xml:space="preserve" font-family="HelveticaNeue-Medium,Helvetica Neue" font-size="33.0" fill="#FEFFFE" transform="matrix(1.00, 0.00, -0.00, -1.00, 482.2, 477.8)"> </text><text xml:space="preserve" font-family="HelveticaNeue-Medium,Helvetica Neue" font-size="33.0" fill="#FEFFFE" transform="matrix(1.00, 0.00, -0.00, -1.00, 491.4, 477.8)">“</text><text xml:space="preserve" font-family="HelveticaNeue-Medium,Helvetica Neue" font-size="33.0" fill="#FEFFFE" transform="matrix(1.00, 0.00, -0.00, -1.00, 506.1, 477.8)">s</text><text xml:space="preserve" font-family="HelveticaNeue-Medium,Helvetica Neue" font-size="33.0" fill="#FEFFFE" transform="matrix(1.00, 0.00, -0.00, -1.00, 523.2, 477.8)">a</text><text xml:space="preserve" font-family="HelveticaNeue-Medium,Helvetica Neue" font-size="33.0" fill="#FEFFFE" transform="matrix(1.00, 0.00, -0.00, -1.00, 541.5, 477.8)">l</text><text xml:space="preserve" font-family="HelveticaNeue-Medium,Helvetica Neue" font-size="33.0" fill="#FEFFFE" transform="matrix(1.00, 0.00, -0.00, -1.00, 549.5, 477.8)">t</text><text xml:space="preserve" font-family="HelveticaNeue-Medium,Helvetica Neue" font-size="33.0" fill="#FEFFFE" transform="matrix(1.00, 0.00, -0.00, -1.00, 560.5, 477.8)">a</text><text xml:space="preserve" font-family="HelveticaNeue-Medium,Helvetica Neue" font-size="33.0" fill="#FEFFFE" transform="matrix(1.00, 0.00, -0.00, -1.00, 578.8, 477.8)">”</text><text xml:space="preserve" font-family="HelveticaNeue-Medium,Helvetica Neue" font-size="33.0" fill="#FEFFFE" transform="matrix(1.00, 0.00, -0.00, -1.00, 593.5, 477.8)"> </text><text xml:space="preserve" font-family="HelveticaNeue-Medium,Helvetica Neue" font-size="33.0" fill="#FEFFFE" transform="matrix(1.00, 0.00, -0.00, -1.00, 602.6, 477.8)">d</text><text xml:space="preserve" font-family="HelveticaNeue-Medium,Helvetica Neue" font-size="33.0" fill="#FEFFFE" transform="matrix(1.00, 0.00, -0.00, -1.00, 622.8, 477.8)">a</text><text xml:space="preserve" font-family="HelveticaNeue-Medium,Helvetica Neue" font-size="33.0" fill="#FEFFFE" transform="matrix(1.00, 0.00, -0.00, -1.00, 641.2, 477.8)"> </text><text xml:space="preserve" font-family="HelveticaNeue-Medium,Helvetica Neue" font-size="33.0" fill="#FEFFFE" transform="matrix(1.00, 0.00, -0.00, -1.00, 650.3, 477.8)">u</text><text xml:space="preserve" font-family="HelveticaNeue-Medium,Helvetica Neue" font-size="33.0" fill="#FEFFFE" transform="matrix(1.00, 0.00, -0.00, -1.00, 669.3, 477.8)">n</text><text xml:space="preserve" font-family="HelveticaNeue-Medium,Helvetica Neue" font-size="33.0" fill="#FEFFFE" transform="matrix(1.00, 0.00, -0.00, -1.00, 688.2, 477.8)"> </text><text xml:space="preserve" font-family="HelveticaNeue-Medium,Helvetica Neue" font-size="33.0" fill="#FEFFFE" transform="matrix(1.00, 0.00, -0.00, -1.00, 697.4, 477.8)">g</text><text xml:space="preserve" font-family="HelveticaNeue-Medium,Helvetica Neue" font-size="33.0" fill="#FEFFFE" transform="matrix(1.00, 0.00, -0.00, -1.00, 717.0, 477.8)">r</text><text xml:space="preserve" font-family="HelveticaNeue-Medium,Helvetica Neue" font-size="33.0" fill="#FEFFFE" transform="matrix(1.00, 0.00, -0.00, -1.00, 728.6, 477.8)">u</text><text xml:space="preserve" font-family="HelveticaNeue-Medium,Helvetica Neue" font-size="33.0" fill="#FEFFFE" transform="matrix(1.00, 0.00, -0.00, -1.00, 747.5, 477.8)">p</text><text xml:space="preserve" font-family="HelveticaNeue-Medium,Helvetica Neue" font-size="33.0" fill="#FEFFFE" transform="matrix(1.00, 0.00, -0.00, -1.00, 767.7, 477.8)">p</text><text xml:space="preserve" font-family="HelveticaNeue-Medium,Helvetica Neue" font-size="33.0" fill="#FEFFFE" transform="matrix(1.00, 0.00, -0.00, -1.00, 787.8, 477.8)">o</text><text xml:space="preserve" font-family="HelveticaNeue-Medium,Helvetica Neue" font-size="33.0" fill="#FEFFFE" transform="matrix(1.00, 0.00, -0.00, -1.00, 807.4, 477.8)"> </text><text xml:space="preserve" font-family="HelveticaNeue-Medium,Helvetica Neue" font-size="33.0" fill="#FEFFFE" transform="matrix(1.00, 0.00, -0.00, -1.00, 816.6, 477.8)">a</text><text xml:space="preserve" font-family="HelveticaNeue-Medium,Helvetica Neue" font-size="33.0" fill="#FEFFFE" transform="matrix(1.00, 0.00, -0.00, -1.00, 834.9, 477.8)">l</text><text xml:space="preserve" font-family="HelveticaNeue-Medium,Helvetica Neue" font-size="33.0" fill="#FEFFFE" transform="matrix(1.00, 0.00, -0.00, -1.00, 842.9, 477.8)">l</text><text xml:space="preserve" font-family="HelveticaNeue-Medium,Helvetica Neue" font-size="33.0" fill="#FEFFFE" transform="matrix(1.00, 0.00, -0.00, -1.00, 850.8, 477.8)">’</text><text xml:space="preserve" font-family="HelveticaNeue-Medium,Helvetica Neue" font-size="33.0" fill="#FEFFFE" transform="matrix(1.00, 0.00, -0.00, -1.00, 860.0, 477.8)">a</text><text xml:space="preserve" font-family="HelveticaNeue-Medium,Helvetica Neue" font-size="33.0" fill="#FEFFFE" transform="matrix(1.00, 0.00, -0.00, -1.00, 878.4, 477.8)">l</text><text xml:space="preserve" font-family="HelveticaNeue-Medium,Helvetica Neue" font-size="33.0" fill="#FEFFFE" transform="matrix(1.00, 0.00, -0.00, -1.00, 886.3, 477.8)">t</text><text xml:space="preserve" font-family="HelveticaNeue-Medium,Helvetica Neue" font-size="33.0" fill="#FEFFFE" transform="matrix(1.00, 0.00, -0.00, -1.00, 897.3, 477.8)">r</text><text xml:space="preserve" font-family="HelveticaNeue-Medium,Helvetica Neue" font-size="33.0" fill="#FEFFFE" transform="matrix(1.00, 0.00, -0.00, -1.00, 908.3, 477.8)">o</text><text xml:space="preserve" font-family="HelveticaNeue-Medium,Helvetica Neue" font-size="33.0" fill="#FEFFFE" transform="matrix(1.00, 0.00, -0.00, -1.00, 927.9, 477.8)"> </text><image xlink:href="../../9C131460-BD99-4727-9528-6E7C53C23EDE/assets/2D4164AA7538A90FE99A8FF1826E2B32.png" width="18.00" height="18.00" transform="matrix(1.00, 0.00, -0.00, -1.00, 231.0, 417.0)"></image><text xml:space="preserve" font-family="HelveticaNeue-Medium,Helvetica Neue" font-size="24.8" fill="#FEFFFE" transform="matrix(1.00, 0.00, -0.00, -1.00, 233.7, 400.9)">•</text><image xlink:href="../../9C131460-BD99-4727-9528-6E7C53C23EDE/assets/17C8313E3C6F765FF11490EE4B4CE653.png" width="494.00" height="39.00" transform="matrix(1.00, 0.00, -0.00, -1.00, 263.0, 424.0)"></image><text xml:space="preserve" font-family="HelveticaNeue-Medium,Helvetica Neue" font-size="33.0" fill="#FEFFFE" transform="matrix(1.00, 0.00, -0.00, -1.00, 264.6, 397.8)">E</text><text xml:space="preserve" font-family="HelveticaNeue-Medium,Helvetica Neue" font-size="33.0" fill="#FEFFFE" transform="matrix(1.00, 0.00, -0.00, -1.00, 285.4, 397.8)">s</text><text xml:space="preserve" font-family="HelveticaNeue-Medium,Helvetica Neue" font-size="33.0" fill="#FEFFFE" transform="matrix(1.00, 0.00, -0.00, -1.00, 302.5, 397.8)">e</text><text xml:space="preserve" font-family="HelveticaNeue-Medium,Helvetica Neue" font-size="33.0" fill="#FEFFFE" transform="matrix(1.00, 0.00, -0.00, -1.00, 320.9, 397.8)">g</text><text xml:space="preserve" font-family="HelveticaNeue-Medium,Helvetica Neue" font-size="33.0" fill="#FEFFFE" transform="matrix(1.00, 0.00, -0.00, -1.00, 340.4, 397.8)">u</text><text xml:space="preserve" font-family="HelveticaNeue-Medium,Helvetica Neue" font-size="33.0" fill="#FEFFFE" transform="matrix(1.00, 0.00, -0.00, -1.00, 359.4, 397.8)">e</text><text xml:space="preserve" font-family="HelveticaNeue-Medium,Helvetica Neue" font-size="33.0" fill="#FEFFFE" transform="matrix(1.00, 0.00, -0.00, -1.00, 377.7, 397.8)"> </text><text xml:space="preserve" font-family="HelveticaNeue-Medium,Helvetica Neue" font-size="33.0" fill="#FEFFFE" transform="matrix(1.00, 0.00, -0.00, -1.00, 386.9, 397.8)">i</text><text xml:space="preserve" font-family="HelveticaNeue-Medium,Helvetica Neue" font-size="33.0" fill="#FEFFFE" transform="matrix(1.00, 0.00, -0.00, -1.00, 394.8, 397.8)">l</text><text xml:space="preserve" font-family="HelveticaNeue-Medium,Helvetica Neue" font-size="33.0" fill="#FEFFFE" transform="matrix(1.00, 0.00, -0.00, -1.00, 402.8, 397.8)"> </text><text xml:space="preserve" font-family="HelveticaNeue-Medium,Helvetica Neue" font-size="33.0" fill="#FEFFFE" transform="matrix(1.00, 0.00, -0.00, -1.00, 412.0, 397.8)">t</text><text xml:space="preserve" font-family="HelveticaNeue-Medium,Helvetica Neue" font-size="33.0" fill="#FEFFFE" transform="matrix(1.00, 0.00, -0.00, -1.00, 423.0, 397.8)">r</text><text xml:space="preserve" font-family="HelveticaNeue-Medium,Helvetica Neue" font-size="33.0" fill="#FEFFFE" transform="matrix(1.00, 0.00, -0.00, -1.00, 434.6, 397.8)">a</text><text xml:space="preserve" font-family="HelveticaNeue-Medium,Helvetica Neue" font-size="33.0" fill="#FEFFFE" transform="matrix(1.00, 0.00, -0.00, -1.00, 452.9, 397.8)">s</text><text xml:space="preserve" font-family="HelveticaNeue-Medium,Helvetica Neue" font-size="33.0" fill="#FEFFFE" transform="matrix(1.00, 0.00, -0.00, -1.00, 470.1, 397.8)">f</text><text xml:space="preserve" font-family="HelveticaNeue-Medium,Helvetica Neue" font-size="33.0" fill="#FEFFFE" transform="matrix(1.00, 0.00, -0.00, -1.00, 480.4, 397.8)">e</text><text xml:space="preserve" font-family="HelveticaNeue-Medium,Helvetica Neue" font-size="33.0" fill="#FEFFFE" transform="matrix(1.00, 0.00, -0.00, -1.00, 498.8, 397.8)">r</text><text xml:space="preserve" font-family="HelveticaNeue-Medium,Helvetica Neue" font-size="33.0" fill="#FEFFFE" transform="matrix(1.00, 0.00, -0.00, -1.00, 510.4, 397.8)">i</text><text xml:space="preserve" font-family="HelveticaNeue-Medium,Helvetica Neue" font-size="33.0" fill="#FEFFFE" transform="matrix(1.00, 0.00, -0.00, -1.00, 518.4, 397.8)">m</text><text xml:space="preserve" font-family="HelveticaNeue-Medium,Helvetica Neue" font-size="33.0" fill="#FEFFFE" transform="matrix(1.00, 0.00, -0.00, -1.00, 547.1, 397.8)">e</text><text xml:space="preserve" font-family="HelveticaNeue-Medium,Helvetica Neue" font-size="33.0" fill="#FEFFFE" transform="matrix(1.00, 0.00, -0.00, -1.00, 565.4, 397.8)">n</text><text xml:space="preserve" font-family="HelveticaNeue-Medium,Helvetica Neue" font-size="33.0" fill="#FEFFFE" transform="matrix(1.00, 0.00, -0.00, -1.00, 584.4, 397.8)">t</text><text xml:space="preserve" font-family="HelveticaNeue-Medium,Helvetica Neue" font-size="33.0" fill="#FEFFFE" transform="matrix(1.00, 0.00, -0.00, -1.00, 595.4, 397.8)">o</text><text xml:space="preserve" font-family="HelveticaNeue-Medium,Helvetica Neue" font-size="33.0" fill="#FEFFFE" transform="matrix(1.00, 0.00, -0.00, -1.00, 614.9, 397.8)"> </text><text xml:space="preserve" font-family="HelveticaNeue-Medium,Helvetica Neue" font-size="33.0" fill="#FEFFFE" transform="matrix(1.00, 0.00, -0.00, -1.00, 624.1, 397.8)">d</text><text xml:space="preserve" font-family="HelveticaNeue-Medium,Helvetica Neue" font-size="33.0" fill="#FEFFFE" transform="matrix(1.00, 0.00, -0.00, -1.00, 644.3, 397.8)">i</text><text xml:space="preserve" font-family="HelveticaNeue-Medium,Helvetica Neue" font-size="33.0" fill="#FEFFFE" transform="matrix(1.00, 0.00, -0.00, -1.00, 652.2, 397.8)"> </text><text xml:space="preserve" font-family="HelveticaNeue-Medium,Helvetica Neue" font-size="33.0" fill="#FEFFFE" transform="matrix(1.00, 0.00, -0.00, -1.00, 661.4, 397.8)">u</text><text xml:space="preserve" font-family="HelveticaNeue-Medium,Helvetica Neue" font-size="33.0" fill="#FEFFFE" transform="matrix(1.00, 0.00, -0.00, -1.00, 680.3, 397.8)">n</text><text xml:space="preserve" font-family="HelveticaNeue-Medium,Helvetica Neue" font-size="33.0" fill="#FEFFFE" transform="matrix(1.00, 0.00, -0.00, -1.00, 699.3, 397.8)"> </text><text xml:space="preserve" font-family="HelveticaNeue-Medium,Helvetica Neue" font-size="33.0" fill="#FEFFFE" transform="matrix(1.00, 0.00, -0.00, -1.00, 708.4, 397.8)">ﬁ</text><text xml:space="preserve" font-family="HelveticaNeue-Medium,Helvetica Neue" font-size="33.0" fill="#FEFFFE" transform="matrix(1.00, 0.00, -0.00, -1.00, 726.8, 397.8)">l</text><text xml:space="preserve" font-family="HelveticaNeue-Medium,Helvetica Neue" font-size="33.0" fill="#FEFFFE" transform="matrix(1.00, 0.00, -0.00, -1.00, 734.7, 397.8)">e</text><text xml:space="preserve" font-family="HelveticaNeue-Medium,Helvetica Neue" font-size="33.0" fill="#FEFFFE" transform="matrix(1.00, 0.00, -0.00, -1.00, 753.1, 397.8)"> </text><image xlink:href="../../9C131460-BD99-4727-9528-6E7C53C23EDE/assets/2D4164AA7538A90FE99A8FF1826E2B32.png" width="18.00" height="18.00" transform="matrix(1.00, 0.00, -0.00, -1.00, 231.0, 337.0)"></image><text xml:space="preserve" font-family="HelveticaNeue-Medium,Helvetica Neue" font-size="24.8" fill="#FEFFFE" transform="matrix(1.00, 0.00, -0.00, -1.00, 233.7, 320.9)">•</text><image xlink:href="../../9C131460-BD99-4727-9528-6E7C53C23EDE/assets/DD96F75573D64C9A934BAE3F7EA28873.png" width="585.00" height="33.00" transform="matrix(1.00, 0.00, -0.00, -1.00, 262.0, 344.0)"></image><text xml:space="preserve" font-family="HelveticaNeue-Medium,Helvetica Neue" font-size="33.0" fill="#FEFFFE" transform="matrix(1.00, 0.00, -0.00, -1.00, 264.6, 317.8)">G</text><text xml:space="preserve" font-family="HelveticaNeue-Medium,Helvetica Neue" font-size="33.0" fill="#FEFFFE" transform="matrix(1.00, 0.00, -0.00, -1.00, 289.6, 317.8)">e</text><text xml:space="preserve" font-family="HelveticaNeue-Medium,Helvetica Neue" font-size="33.0" fill="#FEFFFE" transform="matrix(1.00, 0.00, -0.00, -1.00, 308.0, 317.8)">s</text><text xml:space="preserve" font-family="HelveticaNeue-Medium,Helvetica Neue" font-size="33.0" fill="#FEFFFE" transform="matrix(1.00, 0.00, -0.00, -1.00, 325.1, 317.8)">t</text><text xml:space="preserve" font-family="HelveticaNeue-Medium,Helvetica Neue" font-size="33.0" fill="#FEFFFE" transform="matrix(1.00, 0.00, -0.00, -1.00, 336.1, 317.8)">i</text><text xml:space="preserve" font-family="HelveticaNeue-Medium,Helvetica Neue" font-size="33.0" fill="#FEFFFE" transform="matrix(1.00, 0.00, -0.00, -1.00, 344.1, 317.8)">s</text><text xml:space="preserve" font-family="HelveticaNeue-Medium,Helvetica Neue" font-size="33.0" fill="#FEFFFE" transform="matrix(1.00, 0.00, -0.00, -1.00, 361.2, 317.8)">c</text><text xml:space="preserve" font-family="HelveticaNeue-Medium,Helvetica Neue" font-size="33.0" fill="#FEFFFE" transform="matrix(1.00, 0.00, -0.00, -1.00, 379.5, 317.8)">e</text><text xml:space="preserve" font-family="HelveticaNeue-Medium,Helvetica Neue" font-size="33.0" fill="#FEFFFE" transform="matrix(1.00, 0.00, -0.00, -1.00, 397.9, 317.8)"> </text><text xml:space="preserve" font-family="HelveticaNeue-Medium,Helvetica Neue" font-size="33.0" fill="#FEFFFE" transform="matrix(1.00, 0.00, -0.00, -1.00, 407.1, 317.8)">l</text><text xml:space="preserve" font-family="HelveticaNeue-Medium,Helvetica Neue" font-size="33.0" fill="#FEFFFE" transform="matrix(1.00, 0.00, -0.00, -1.00, 415.0, 317.8)">e</text><text xml:space="preserve" font-family="HelveticaNeue-Medium,Helvetica Neue" font-size="33.0" fill="#FEFFFE" transform="matrix(1.00, 0.00, -0.00, -1.00, 433.4, 317.8)"> </text><text xml:space="preserve" font-family="HelveticaNeue-Medium,Helvetica Neue" font-size="33.0" fill="#FEFFFE" transform="matrix(1.00, 0.00, -0.00, -1.00, 442.5, 317.8)">r</text><text xml:space="preserve" font-family="HelveticaNeue-Medium,Helvetica Neue" font-size="33.0" fill="#FEFFFE" transform="matrix(1.00, 0.00, -0.00, -1.00, 454.1, 317.8)">i</text><text xml:space="preserve" font-family="HelveticaNeue-Medium,Helvetica Neue" font-size="33.0" fill="#FEFFFE" transform="matrix(1.00, 0.00, -0.00, -1.00, 462.1, 317.8)">c</text><text xml:space="preserve" font-family="HelveticaNeue-Medium,Helvetica Neue" font-size="33.0" fill="#FEFFFE" transform="matrix(1.00, 0.00, -0.00, -1.00, 480.4, 317.8)">o</text><text xml:space="preserve" font-family="HelveticaNeue-Medium,Helvetica Neue" font-size="33.0" fill="#FEFFFE" transform="matrix(1.00, 0.00, -0.00, -1.00, 500.0, 317.8)">n</text><text xml:space="preserve" font-family="HelveticaNeue-Medium,Helvetica Neue" font-size="33.0" fill="#FEFFFE" transform="matrix(1.00, 0.00, -0.00, -1.00, 519.0, 317.8)">n</text><text xml:space="preserve" font-family="HelveticaNeue-Medium,Helvetica Neue" font-size="33.0" fill="#FEFFFE" transform="matrix(1.00, 0.00, -0.00, -1.00, 537.9, 317.8)">e</text><text xml:space="preserve" font-family="HelveticaNeue-Medium,Helvetica Neue" font-size="33.0" fill="#FEFFFE" transform="matrix(1.00, 0.00, -0.00, -1.00, 556.2, 317.8)">s</text><text xml:space="preserve" font-family="HelveticaNeue-Medium,Helvetica Neue" font-size="33.0" fill="#FEFFFE" transform="matrix(1.00, 0.00, -0.00, -1.00, 573.4, 317.8)">s</text><text xml:space="preserve" font-family="HelveticaNeue-Medium,Helvetica Neue" font-size="33.0" fill="#FEFFFE" transform="matrix(1.00, 0.00, -0.00, -1.00, 590.5, 317.8)">i</text><text xml:space="preserve" font-family="HelveticaNeue-Medium,Helvetica Neue" font-size="33.0" fill="#FEFFFE" transform="matrix(1.00, 0.00, -0.00, -1.00, 598.5, 317.8)">o</text><text xml:space="preserve" font-family="HelveticaNeue-Medium,Helvetica Neue" font-size="33.0" fill="#FEFFFE" transform="matrix(1.00, 0.00, -0.00, -1.00, 618.0, 317.8)">n</text><text xml:space="preserve" font-family="HelveticaNeue-Medium,Helvetica Neue" font-size="33.0" fill="#FEFFFE" transform="matrix(1.00, 0.00, -0.00, -1.00, 637.0, 317.8)">i</text><text xml:space="preserve" font-family="HelveticaNeue-Medium,Helvetica Neue" font-size="33.0" fill="#FEFFFE" transform="matrix(1.00, 0.00, -0.00, -1.00, 644.9, 317.8)"> </text><text xml:space="preserve" font-family="HelveticaNeue-Medium,Helvetica Neue" font-size="33.0" fill="#FEFFFE" transform="matrix(1.00, 0.00, -0.00, -1.00, 654.1, 317.8)">a</text><text xml:space="preserve" font-family="HelveticaNeue-Medium,Helvetica Neue" font-size="33.0" fill="#FEFFFE" transform="matrix(1.00, 0.00, -0.00, -1.00, 672.4, 317.8)">u</text><text xml:space="preserve" font-family="HelveticaNeue-Medium,Helvetica Neue" font-size="33.0" fill="#FEFFFE" transform="matrix(1.00, 0.00, -0.00, -1.00, 691.4, 317.8)">t</text><text xml:space="preserve" font-family="HelveticaNeue-Medium,Helvetica Neue" font-size="33.0" fill="#FEFFFE" transform="matrix(1.00, 0.00, -0.00, -1.00, 702.4, 317.8)">o</text><text xml:space="preserve" font-family="HelveticaNeue-Medium,Helvetica Neue" font-size="33.0" fill="#FEFFFE" transform="matrix(1.00, 0.00, -0.00, -1.00, 721.9, 317.8)">m</text><text xml:space="preserve" font-family="HelveticaNeue-Medium,Helvetica Neue" font-size="33.0" fill="#FEFFFE" transform="matrix(1.00, 0.00, -0.00, -1.00, 750.7, 317.8)">a</text><text xml:space="preserve" font-family="HelveticaNeue-Medium,Helvetica Neue" font-size="33.0" fill="#FEFFFE" transform="matrix(1.00, 0.00, -0.00, -1.00, 769.0, 317.8)">t</text><text xml:space="preserve" font-family="HelveticaNeue-Medium,Helvetica Neue" font-size="33.0" fill="#FEFFFE" transform="matrix(1.00, 0.00, -0.00, -1.00, 780.0, 317.8)">i</text><text xml:space="preserve" font-family="HelveticaNeue-Medium,Helvetica Neue" font-size="33.0" fill="#FEFFFE" transform="matrix(1.00, 0.00, -0.00, -1.00, 787.9, 317.8)">c</text><text xml:space="preserve" font-family="HelveticaNeue-Medium,Helvetica Neue" font-size="33.0" fill="#FEFFFE" transform="matrix(1.00, 0.00, -0.00, -1.00, 806.3, 317.8)">h</text><text xml:space="preserve" font-family="HelveticaNeue-Medium,Helvetica Neue" font-size="33.0" fill="#FEFFFE" transform="matrix(1.00, 0.00, -0.00, -1.00, 825.2, 317.8)">e</text><image xlink:href="../../9C131460-BD99-4727-9528-6E7C53C23EDE/assets/CFD6761823F7581F8B215686B9473E53.png" width="612.00" height="39.00" transform="matrix(1.00, 0.00, -0.00, -1.00, 316.0, 154.0)"></image><text xml:space="preserve" font-family="HelveticaNeue-Medium,Helvetica Neue" font-size="33.0" fill="#FEFFFE" transform="matrix(1.00, 0.00, -0.00, -1.00, 319.0, 127.3)">C</text><text xml:space="preserve" font-family="HelveticaNeue-Medium,Helvetica Neue" font-size="33.0" fill="#FEFFFE" transform="matrix(1.00, 0.00, -0.00, -1.00, 342.8, 127.3)">o</text><text xml:space="preserve" font-family="HelveticaNeue-Medium,Helvetica Neue" font-size="33.0" fill="#FEFFFE" transform="matrix(1.00, 0.00, -0.00, -1.00, 362.4, 127.3)">n</text><text xml:space="preserve" font-family="HelveticaNeue-Medium,Helvetica Neue" font-size="33.0" fill="#FEFFFE" transform="matrix(1.00, 0.00, -0.00, -1.00, 381.3, 127.3)">v</text><text xml:space="preserve" font-family="HelveticaNeue-Medium,Helvetica Neue" font-size="33.0" fill="#FEFFFE" transform="matrix(1.00, 0.00, -0.00, -1.00, 398.5, 127.3)">i</text><text xml:space="preserve" font-family="HelveticaNeue-Medium,Helvetica Neue" font-size="33.0" fill="#FEFFFE" transform="matrix(1.00, 0.00, -0.00, -1.00, 406.4, 127.3)">n</text><text xml:space="preserve" font-family="HelveticaNeue-Medium,Helvetica Neue" font-size="33.0" fill="#FEFFFE" transform="matrix(1.00, 0.00, -0.00, -1.00, 425.4, 127.3)">c</text><text xml:space="preserve" font-family="HelveticaNeue-Medium,Helvetica Neue" font-size="33.0" fill="#FEFFFE" transform="matrix(1.00, 0.00, -0.00, -1.00, 443.7, 127.3)">e</text><text xml:space="preserve" font-family="HelveticaNeue-Medium,Helvetica Neue" font-size="33.0" fill="#FEFFFE" transform="matrix(1.00, 0.00, -0.00, -1.00, 462.1, 127.3)">r</text><text xml:space="preserve" font-family="HelveticaNeue-Medium,Helvetica Neue" font-size="33.0" fill="#FEFFFE" transform="matrix(1.00, 0.00, -0.00, -1.00, 473.1, 127.3)">e</text><text xml:space="preserve" font-family="HelveticaNeue-Medium,Helvetica Neue" font-size="33.0" fill="#FEFFFE" transform="matrix(1.00, 0.00, -0.00, -1.00, 491.4, 127.3)"> </text><text xml:space="preserve" font-family="HelveticaNeue-Medium,Helvetica Neue" font-size="33.0" fill="#FEFFFE" transform="matrix(1.00, 0.00, -0.00, -1.00, 500.6, 127.3)">l</text><text xml:space="preserve" font-family="HelveticaNeue-Medium,Helvetica Neue" font-size="33.0" fill="#FEFFFE" transform="matrix(1.00, 0.00, -0.00, -1.00, 508.6, 127.3)">’</text><text xml:space="preserve" font-family="HelveticaNeue-Medium,Helvetica Neue" font-size="33.0" fill="#FEFFFE" transform="matrix(1.00, 0.00, -0.00, -1.00, 517.7, 127.3)">u</text><text xml:space="preserve" font-family="HelveticaNeue-Medium,Helvetica Neue" font-size="33.0" fill="#FEFFFE" transform="matrix(1.00, 0.00, -0.00, -1.00, 536.7, 127.3)">t</text><text xml:space="preserve" font-family="HelveticaNeue-Medium,Helvetica Neue" font-size="33.0" fill="#FEFFFE" transform="matrix(1.00, 0.00, -0.00, -1.00, 547.7, 127.3)">e</text><text xml:space="preserve" font-family="HelveticaNeue-Medium,Helvetica Neue" font-size="33.0" fill="#FEFFFE" transform="matrix(1.00, 0.00, -0.00, -1.00, 566.0, 127.3)">n</text><text xml:space="preserve" font-family="HelveticaNeue-Medium,Helvetica Neue" font-size="33.0" fill="#FEFFFE" transform="matrix(1.00, 0.00, -0.00, -1.00, 585.0, 127.3)">t</text><text xml:space="preserve" font-family="HelveticaNeue-Medium,Helvetica Neue" font-size="33.0" fill="#FEFFFE" transform="matrix(1.00, 0.00, -0.00, -1.00, 595.9, 127.3)">e</text><text xml:space="preserve" font-family="HelveticaNeue-Medium,Helvetica Neue" font-size="33.0" fill="#FEFFFE" transform="matrix(1.00, 0.00, -0.00, -1.00, 614.3, 127.3)"> </text><text xml:space="preserve" font-family="HelveticaNeue-Medium,Helvetica Neue" font-size="33.0" fill="#FEFFFE" transform="matrix(1.00, 0.00, -0.00, -1.00, 623.5, 127.3)">d</text><text xml:space="preserve" font-family="HelveticaNeue-Medium,Helvetica Neue" font-size="33.0" fill="#FEFFFE" transform="matrix(1.00, 0.00, -0.00, -1.00, 643.6, 127.3)">i</text><text xml:space="preserve" font-family="HelveticaNeue-Medium,Helvetica Neue" font-size="33.0" fill="#FEFFFE" transform="matrix(1.00, 0.00, -0.00, -1.00, 651.6, 127.3)"> </text><text xml:space="preserve" font-family="HelveticaNeue-Medium,Helvetica Neue" font-size="33.0" fill="#FEFFFE" transform="matrix(1.00, 0.00, -0.00, -1.00, 660.8, 127.3)">p</text><text xml:space="preserve" font-family="HelveticaNeue-Medium,Helvetica Neue" font-size="33.0" fill="#FEFFFE" transform="matrix(1.00, 0.00, -0.00, -1.00, 680.9, 127.3)">o</text><text xml:space="preserve" font-family="HelveticaNeue-Medium,Helvetica Neue" font-size="33.0" fill="#FEFFFE" transform="matrix(1.00, 0.00, -0.00, -1.00, 700.5, 127.3)">t</text><text xml:space="preserve" font-family="HelveticaNeue-Medium,Helvetica Neue" font-size="33.0" fill="#FEFFFE" transform="matrix(1.00, 0.00, -0.00, -1.00, 711.5, 127.3)">e</text><text xml:space="preserve" font-family="HelveticaNeue-Medium,Helvetica Neue" font-size="33.0" fill="#FEFFFE" transform="matrix(1.00, 0.00, -0.00, -1.00, 729.8, 127.3)">r</text><text xml:space="preserve" font-family="HelveticaNeue-Medium,Helvetica Neue" font-size="33.0" fill="#FEFFFE" transform="matrix(1.00, 0.00, -0.00, -1.00, 741.4, 127.3)"> </text><text xml:space="preserve" font-family="HelveticaNeue-Medium,Helvetica Neue" font-size="33.0" fill="#FEFFFE" transform="matrix(1.00, 0.00, -0.00, -1.00, 750.6, 127.3)">p</text><text xml:space="preserve" font-family="HelveticaNeue-Medium,Helvetica Neue" font-size="33.0" fill="#FEFFFE" transform="matrix(1.00, 0.00, -0.00, -1.00, 770.8, 127.3)">a</text><text xml:space="preserve" font-family="HelveticaNeue-Medium,Helvetica Neue" font-size="33.0" fill="#FEFFFE" transform="matrix(1.00, 0.00, -0.00, -1.00, 789.1, 127.3)">r</text><text xml:space="preserve" font-family="HelveticaNeue-Medium,Helvetica Neue" font-size="33.0" fill="#FEFFFE" transform="matrix(1.00, 0.00, -0.00, -1.00, 800.7, 127.3)">t</text><text xml:space="preserve" font-family="HelveticaNeue-Medium,Helvetica Neue" font-size="33.0" fill="#FEFFFE" transform="matrix(1.00, 0.00, -0.00, -1.00, 811.7, 127.3)">e</text><text xml:space="preserve" font-family="HelveticaNeue-Medium,Helvetica Neue" font-size="33.0" fill="#FEFFFE" transform="matrix(1.00, 0.00, -0.00, -1.00, 830.1, 127.3)">c</text><text xml:space="preserve" font-family="HelveticaNeue-Medium,Helvetica Neue" font-size="33.0" fill="#FEFFFE" transform="matrix(1.00, 0.00, -0.00, -1.00, 848.4, 127.3)">i</text><text xml:space="preserve" font-family="HelveticaNeue-Medium,Helvetica Neue" font-size="33.0" fill="#FEFFFE" transform="matrix(1.00, 0.00, -0.00, -1.00, 856.4, 127.3)">p</text><text xml:space="preserve" font-family="HelveticaNeue-Medium,Helvetica Neue" font-size="33.0" fill="#FEFFFE" transform="matrix(1.00, 0.00, -0.00, -1.00, 876.5, 127.3)">a</text><text xml:space="preserve" font-family="HelveticaNeue-Medium,Helvetica Neue" font-size="33.0" fill="#FEFFFE" transform="matrix(1.00, 0.00, -0.00, -1.00, 894.9, 127.3)">r</text><text xml:space="preserve" font-family="HelveticaNeue-Medium,Helvetica Neue" font-size="33.0" fill="#FEFFFE" transform="matrix(1.00, 0.00, -0.00, -1.00, 905.9, 127.3)">e</text><text xml:space="preserve" font-family="HelveticaNeue-Medium,Helvetica Neue" font-size="33.0" fill="#FEFFFE" transform="matrix(1.00, 0.00, -0.00, -1.00, 924.3, 127.3)"> </text><text xml:space="preserve" font-family="HelveticaNeue-Medium,Helvetica Neue" font-size="33.0" fill="#FEFFFE" transform="matrix(1.00, 0.00, -0.00, -1.00, 933.4, 127.3)"> </text><image xlink:href="../../9C131460-BD99-4727-9528-6E7C53C23EDE/assets/8DE1F09E6B83AAD972C6C9B910B0EECE.png" width="534.00" height="40.00" transform="matrix(1.00, 0.00, -0.00, -1.00, 355.0, 114.0)"></image><text xml:space="preserve" font-family="HelveticaNeue-Medium,Helvetica Neue" font-size="33.0" fill="#FEFFFE" transform="matrix(1.00, 0.00, -0.00, -1.00, 358.2, 87.3)">a</text><text xml:space="preserve" font-family="HelveticaNeue-Medium,Helvetica Neue" font-size="33.0" fill="#FEFFFE" transform="matrix(1.00, 0.00, -0.00, -1.00, 376.5, 87.3)"> </text><text xml:space="preserve" font-family="HelveticaNeue-Medium,Helvetica Neue" font-size="33.0" fill="#FEFFFE" transform="matrix(1.00, 0.00, -0.00, -1.00, 385.7, 87.3)">p</text><text xml:space="preserve" font-family="HelveticaNeue-Medium,Helvetica Neue" font-size="33.0" fill="#FEFFFE" transform="matrix(1.00, 0.00, -0.00, -1.00, 405.9, 87.3)">i</text><text xml:space="preserve" font-family="HelveticaNeue-Medium,Helvetica Neue" font-size="33.0" fill="#FEFFFE" transform="matrix(1.00, 0.00, -0.00, -1.00, 413.8, 87.3)">ù</text><text xml:space="preserve" font-family="HelveticaNeue-Medium,Helvetica Neue" font-size="33.0" fill="#FEFFFE" transform="matrix(1.00, 0.00, -0.00, -1.00, 432.8, 87.3)"> </text><text xml:space="preserve" font-family="HelveticaNeue-Medium,Helvetica Neue" font-size="33.0" fill="#FEFFFE" transform="matrix(1.00, 0.00, -0.00, -1.00, 441.9, 87.3)">g</text><text xml:space="preserve" font-family="HelveticaNeue-Medium,Helvetica Neue" font-size="33.0" fill="#FEFFFE" transform="matrix(1.00, 0.00, -0.00, -1.00, 461.5, 87.3)">r</text><text xml:space="preserve" font-family="HelveticaNeue-Medium,Helvetica Neue" font-size="33.0" fill="#FEFFFE" transform="matrix(1.00, 0.00, -0.00, -1.00, 473.1, 87.3)">u</text><text xml:space="preserve" font-family="HelveticaNeue-Medium,Helvetica Neue" font-size="33.0" fill="#FEFFFE" transform="matrix(1.00, 0.00, -0.00, -1.00, 492.1, 87.3)">p</text><text xml:space="preserve" font-family="HelveticaNeue-Medium,Helvetica Neue" font-size="33.0" fill="#FEFFFE" transform="matrix(1.00, 0.00, -0.00, -1.00, 512.2, 87.3)">p</text><text xml:space="preserve" font-family="HelveticaNeue-Medium,Helvetica Neue" font-size="33.0" fill="#FEFFFE" transform="matrix(1.00, 0.00, -0.00, -1.00, 532.4, 87.3)">i</text><text xml:space="preserve" font-family="HelveticaNeue-Medium,Helvetica Neue" font-size="33.0" fill="#FEFFFE" transform="matrix(1.00, 0.00, -0.00, -1.00, 540.3, 87.3)"> </text><text xml:space="preserve" font-family="HelveticaNeue-Medium,Helvetica Neue" font-size="33.0" fill="#FEFFFE" transform="matrix(1.00, 0.00, -0.00, -1.00, 549.5, 87.3)">c</text><text xml:space="preserve" font-family="HelveticaNeue-Medium,Helvetica Neue" font-size="33.0" fill="#FEFFFE" transform="matrix(1.00, 0.00, -0.00, -1.00, 567.9, 87.3)">o</text><text xml:space="preserve" font-family="HelveticaNeue-Medium,Helvetica Neue" font-size="33.0" fill="#FEFFFE" transform="matrix(1.00, 0.00, -0.00, -1.00, 587.4, 87.3)">n</text><text xml:space="preserve" font-family="HelveticaNeue-Medium,Helvetica Neue" font-size="33.0" fill="#FEFFFE" transform="matrix(1.00, 0.00, -0.00, -1.00, 606.4, 87.3)">t</text><text xml:space="preserve" font-family="HelveticaNeue-Medium,Helvetica Neue" font-size="33.0" fill="#FEFFFE" transform="matrix(1.00, 0.00, -0.00, -1.00, 617.4, 87.3)">e</text><text xml:space="preserve" font-family="HelveticaNeue-Medium,Helvetica Neue" font-size="33.0" fill="#FEFFFE" transform="matrix(1.00, 0.00, -0.00, -1.00, 635.7, 87.3)">m</text><text xml:space="preserve" font-family="HelveticaNeue-Medium,Helvetica Neue" font-size="33.0" fill="#FEFFFE" transform="matrix(1.00, 0.00, -0.00, -1.00, 664.4, 87.3)">p</text><text xml:space="preserve" font-family="HelveticaNeue-Medium,Helvetica Neue" font-size="33.0" fill="#FEFFFE" transform="matrix(1.00, 0.00, -0.00, -1.00, 684.6, 87.3)">o</text><text xml:space="preserve" font-family="HelveticaNeue-Medium,Helvetica Neue" font-size="33.0" fill="#FEFFFE" transform="matrix(1.00, 0.00, -0.00, -1.00, 704.1, 87.3)">r</text><text xml:space="preserve" font-family="HelveticaNeue-Medium,Helvetica Neue" font-size="33.0" fill="#FEFFFE" transform="matrix(1.00, 0.00, -0.00, -1.00, 715.8, 87.3)">a</text><text xml:space="preserve" font-family="HelveticaNeue-Medium,Helvetica Neue" font-size="33.0" fill="#FEFFFE" transform="matrix(1.00, 0.00, -0.00, -1.00, 734.1, 87.3)">n</text><text xml:space="preserve" font-family="HelveticaNeue-Medium,Helvetica Neue" font-size="33.0" fill="#FEFFFE" transform="matrix(1.00, 0.00, -0.00, -1.00, 753.1, 87.3)">e</text><text xml:space="preserve" font-family="HelveticaNeue-Medium,Helvetica Neue" font-size="33.0" fill="#FEFFFE" transform="matrix(1.00, 0.00, -0.00, -1.00, 771.4, 87.3)">a</text><text xml:space="preserve" font-family="HelveticaNeue-Medium,Helvetica Neue" font-size="33.0" fill="#FEFFFE" transform="matrix(1.00, 0.00, -0.00, -1.00, 789.7, 87.3)">m</text><text xml:space="preserve" font-family="HelveticaNeue-Medium,Helvetica Neue" font-size="33.0" fill="#FEFFFE" transform="matrix(1.00, 0.00, -0.00, -1.00, 818.5, 87.3)">e</text><text xml:space="preserve" font-family="HelveticaNeue-Medium,Helvetica Neue" font-size="33.0" fill="#FEFFFE" transform="matrix(1.00, 0.00, -0.00, -1.00, 836.8, 87.3)">n</text><text xml:space="preserve" font-family="HelveticaNeue-Medium,Helvetica Neue" font-size="33.0" fill="#FEFFFE" transform="matrix(1.00, 0.00, -0.00, -1.00, 855.7, 87.3)">t</text><text xml:space="preserve" font-family="HelveticaNeue-Medium,Helvetica Neue" font-size="33.0" fill="#FEFFFE" transform="matrix(1.00, 0.00, -0.00, -1.00, 866.7, 87.3)">e</text><image xlink:href="../../9C131460-BD99-4727-9528-6E7C53C23EDE/assets/3155984B122457073A5F921D2EA864E3.png" width="83.00" height="83.00" transform="matrix(0.00, -1.00, -1.00, 0.00, 663.1, 249.7)" opacity="0.27"></image><g><clipPath id="clip0x7fd553ff0640"><path d="M 610.0 214.0 L 585.2 214.0 L 621.6 174.7 L 658.1 214.0 L 633.0 214.0 L 633.0 248.0 L 610.0 248.0 Z M 610.0 214.5 "></path></clipPath><g clip-path="url(#clip0x7fd553ff0640)"><image xlink:href="../../7FE81E0A-49E6-4A94-8E1C-9E4E83430AD8/assets/66812298EC73D46BADCACA9889D2977F.png" width="512.00" height="512.00" transform="matrix(0.00, -0.50, -0.50, 0.00, 658.1, 248.0)"></image></g></g><image xlink:href="../../9C131460-BD99-4727-9528-6E7C53C23EDE/assets/BA60A697D39A2ED741E149E4D1350C47.png" width="154.00" height="39.00" transform="matrix(1.00, 0.00, -0.00, -1.00, 39.0, 584.0)"></image><text xml:space="preserve" font-family="HelveticaNeue-Medium,Helvetica Neue" font-size="33.0" fill="#FEFFFE" transform="matrix(1.00, 0.00, -0.00, -1.00, 41.4, 558.0)">P</text><text xml:space="preserve" font-family="HelveticaNeue-Medium,Helvetica Neue" font-size="33.0" fill="#FEFFFE" transform="matrix(1.00, 0.00, -0.00, -1.00, 63.4, 558.0)">i</text><text xml:space="preserve" font-family="HelveticaNeue-Medium,Helvetica Neue" font-size="33.0" fill="#FEFFFE" transform="matrix(1.00, 0.00, -0.00, -1.00, 71.3, 558.0)">n</text><text xml:space="preserve" font-family="HelveticaNeue-Medium,Helvetica Neue" font-size="33.0" fill="#FEFFFE" transform="matrix(1.00, 0.00, -0.00, -1.00, 90.3, 558.0)">g</text><text xml:space="preserve" font-family="HelveticaNeue-Medium,Helvetica Neue" font-size="33.0" fill="#FEFFFE" transform="matrix(1.00, 0.00, -0.00, -1.00, 109.8, 558.0)">P</text><text xml:space="preserve" font-family="HelveticaNeue-Medium,Helvetica Neue" font-size="33.0" fill="#FEFFFE" transform="matrix(1.00, 0.00, -0.00, -1.00, 131.8, 558.0)">o</text><text xml:space="preserve" font-family="HelveticaNeue-Medium,Helvetica Neue" font-size="33.0" fill="#FEFFFE" transform="matrix(1.00, 0.00, -0.00, -1.00, 151.4, 558.0)">n</text><text xml:space="preserve" font-family="HelveticaNeue-Medium,Helvetica Neue" font-size="33.0" fill="#FEFFFE" transform="matrix(1.00, 0.00, -0.00, -1.00, 170.4, 558.0)">g</text></g></svg>