<?xml version="1.0" encoding="UTF-8" standalone="no"?><svg xmlns="http://www.w3.org/2000/svg" xmlns:xlink="http://www.w3.org/1999/xlink" clip-rule="evenodd" stroke-miterlimit="10" viewBox="0 0 1024 768"><desc>SVG generated by Keynote</desc><defs><linearGradient id="gradSh1.150" x1="0.0" y1="0.0" x2="100.0" y2="0.0" gradientUnits="userSpaceOnUse" gradientTransform="matrix(0.00, -7.70, -10.26, 0.00, 512.0, 769.0)"><stop offset="0.00000" stop-color="#5A91D8"></stop><stop offset="0.00367" stop-color="#5A91D7"></stop><stop offset="0.18402" stop-color="#4D7FBF"></stop><stop offset="0.18475" stop-color="#4C7FBF"></stop><stop offset="0.66422" stop-color="#2A517F"></stop><stop offset="0.67082" stop-color="#29517F"></stop><stop offset="0.84824" stop-color="#1D3F67"></stop><stop offset="0.85117" stop-color="#1C3F67"></stop><stop offset="1.00000" stop-color="#123153"></stop></linearGradient></defs><g transform="matrix(1.00, 0.00, -0.00, -1.00, 0.0, 768.0)"><g><clipPath id="clip0x7fd7589ee080"><path d="M 0.0 768.0 L 1024.0 768.0 L 1024.0 0.0 L 0.0 0.0 Z M 0.0 768.0 "></path></clipPath><g clip-path="url(#clip0x7fd7589ee080)"><path d="M 0.0 768.0 L 1024.0 768.0 L 1024.0 0.0 L 0.0 0.0 Z M 0.0 768.0 " fill="url(#gradSh1.150)"></path></g></g><image xlink:href="../../F3EE9E7B-81B7-41C2-8E8C-5FCB1D20064E/assets/00C3C8853E287F800E3C37D8DCB6506F.png" width="386.00" height="66.00" transform="matrix(1.00, 0.00, -0.00, -1.00, 316.0, 701.0)"></image><text xml:space="preserve" font-family="HelveticaNeue-Bold,Helvetica Neue" font-weight="bold" font-size="64.0" fill="#FEFFFE" transform="matrix(1.00, 0.00, -0.00, -1.00, 320.7, 653.2)">A</text><text xml:space="preserve" font-family="HelveticaNeue-Bold,Helvetica Neue" font-weight="bold" font-size="64.0" fill="#FEFFFE" transform="matrix(1.00, 0.00, -0.00, -1.00, 364.6, 653.2)">p</text><text xml:space="preserve" font-family="HelveticaNeue-Bold,Helvetica Neue" font-weight="bold" font-size="64.0" fill="#FEFFFE" transform="matrix(1.00, 0.00, -0.00, -1.00, 403.7, 653.2)">p</text><text xml:space="preserve" font-family="HelveticaNeue-Bold,Helvetica Neue" font-weight="bold" font-size="64.0" fill="#FEFFFE" transform="matrix(1.00, 0.00, -0.00, -1.00, 442.8, 653.2)">l</text><text xml:space="preserve" font-family="HelveticaNeue-Bold,Helvetica Neue" font-weight="bold" font-size="64.0" fill="#FEFFFE" transform="matrix(1.00, 0.00, -0.00, -1.00, 459.3, 653.2)">i</text><text xml:space="preserve" font-family="HelveticaNeue-Bold,Helvetica Neue" font-weight="bold" font-size="64.0" fill="#FEFFFE" transform="matrix(1.00, 0.00, -0.00, -1.00, 475.8, 653.2)">c</text><text xml:space="preserve" font-family="HelveticaNeue-Bold,Helvetica Neue" font-weight="bold" font-size="64.0" fill="#FEFFFE" transform="matrix(1.00, 0.00, -0.00, -1.00, 512.5, 653.2)">a</text><text xml:space="preserve" font-family="HelveticaNeue-Bold,Helvetica Neue" font-weight="bold" font-size="64.0" fill="#FEFFFE" transform="matrix(1.00, 0.00, -0.00, -1.00, 549.3, 653.2)">t</text><text xml:space="preserve" font-family="HelveticaNeue-Bold,Helvetica Neue" font-weight="bold" font-size="64.0" fill="#FEFFFE" transform="matrix(1.00, 0.00, -0.00, -1.00, 571.8, 653.2)">i</text><text xml:space="preserve" font-family="HelveticaNeue-Bold,Helvetica Neue" font-weight="bold" font-size="64.0" fill="#FEFFFE" transform="matrix(1.00, 0.00, -0.00, -1.00, 588.3, 653.2)">o</text><text xml:space="preserve" font-family="HelveticaNeue-Bold,Helvetica Neue" font-weight="bold" font-size="64.0" fill="#FEFFFE" transform="matrix(1.00, 0.00, -0.00, -1.00, 627.4, 653.2)">n</text><text xml:space="preserve" font-family="HelveticaNeue-Bold,Helvetica Neue" font-weight="bold" font-size="64.0" fill="#FEFFFE" transform="matrix(1.00, 0.00, -0.00, -1.00, 665.4, 653.2)">s</text><text xml:space="preserve" font-family="HelveticaNeue,Helvetica Neue" font-size="14.0" fill="#EAEAEA" transform="matrix(1.00, 0.00, -0.00, -1.00, 504.2, 13.6)">5</text><text xml:space="preserve" font-family="HelveticaNeue,Helvetica Neue" font-size="14.0" fill="#EAEAEA" transform="matrix(1.00, 0.00, -0.00, -1.00, 512.0, 13.6)">3</text><image xlink:href="../../721A296F-AE50-43A3-B15C-157EC755E2FD/assets/73EACE759B0B4059543E5ADEF72650A0.png" width="700.00" height="483.00" transform="matrix(0.30, 0.00, -0.00, -0.30, 868.0, 750.0)"></image><image xlink:href="../../3C1F2BF1-ACF2-4945-91A3-6BF131BF9763/assets/3789B509A74F039787CC134419BCEB7D.png" width="697.00" height="432.00" transform="matrix(1.00, 0.00, -0.00, -1.00, 164.0, 507.0)"></image><image xlink:href="../../9C131460-BD99-4727-9528-6E7C53C23EDE/assets/BA60A697D39A2ED741E149E4D1350C47.png" width="154.00" height="39.00" transform="matrix(1.00, 0.00, -0.00, -1.00, 39.0, 584.0)"></image><text xml:space="preserve" font-family="HelveticaNeue-Medium,Helvetica Neue" font-size="33.0" fill="#FEFFFE" transform="matrix(1.00, 0.00, -0.00, -1.00, 41.4, 558.0)">P</text><text xml:space="preserve" font-family="HelveticaNeue-Medium,Helvetica Neue" font-size="33.0" fill="#FEFFFE" transform="matrix(1.00, 0.00, -0.00, -1.00, 63.4, 558.0)">i</text><text xml:space="preserve" font-family="HelveticaNeue-Medium,Helvetica Neue" font-size="33.0" fill="#FEFFFE" transform="matrix(1.00, 0.00, -0.00, -1.00, 71.3, 558.0)">n</text><text xml:space="preserve" font-family="HelveticaNeue-Medium,Helvetica Neue" font-size="33.0" fill="#FEFFFE" transform="matrix(1.00, 0.00, -0.00, -1.00, 90.3, 558.0)">g</text><text xml:space="preserve" font-family="HelveticaNeue-Medium,Helvetica Neue" font-size="33.0" fill="#FEFFFE" transform="matrix(1.00, 0.00, -0.00, -1.00, 109.8, 558.0)">P</text><text xml:space="preserve" font-family="HelveticaNeue-Medium,Helvetica Neue" font-size="33.0" fill="#FEFFFE" transform="matrix(1.00, 0.00, -0.00, -1.00, 131.8, 558.0)">o</text><text xml:space="preserve" font-family="HelveticaNeue-Medium,Helvetica Neue" font-size="33.0" fill="#FEFFFE" transform="matrix(1.00, 0.00, -0.00, -1.00, 151.4, 558.0)">n</text><text xml:space="preserve" font-family="HelveticaNeue-Medium,Helvetica Neue" font-size="33.0" fill="#FEFFFE" transform="matrix(1.00, 0.00, -0.00, -1.00, 170.4, 558.0)">g</text></g></svg>