<?xml version="1.0" encoding="UTF-8" standalone="no"?><svg xmlns="http://www.w3.org/2000/svg" xmlns:xlink="http://www.w3.org/1999/xlink" clip-rule="evenodd" stroke-miterlimit="10" viewBox="0 0 1024 768"><desc>SVG generated by Keynote</desc><defs><linearGradient id="gradSh1.22" x1="0.0" y1="0.0" x2="100.0" y2="0.0" gradientUnits="userSpaceOnUse" gradientTransform="matrix(0.00, -7.70, -10.26, 0.00, 512.0, 769.0)"><stop offset="0.00000" stop-color="#5A91D8"></stop><stop offset="0.00367" stop-color="#5A91D7"></stop><stop offset="0.18402" stop-color="#4D7FBF"></stop><stop offset="0.18475" stop-color="#4C7FBF"></stop><stop offset="0.66422" stop-color="#2A517F"></stop><stop offset="0.67082" stop-color="#29517F"></stop><stop offset="0.84824" stop-color="#1D3F67"></stop><stop offset="0.85117" stop-color="#1C3F67"></stop><stop offset="1.00000" stop-color="#123153"></stop></linearGradient><radialGradient id="gradSh2.23" cx="0.0" cy="0.0" r="44.1" fx="0.0" fy="0.0" gradientUnits="userSpaceOnUse" gradientTransform="matrix(0.51, 0.00, 0.00, -0.53, 464.0, 451.5)"><stop offset="0.00000" stop-color="#000000"></stop><stop offset="0.00073" stop-color="#FF6633"></stop><stop offset="0.00513" stop-color="#FF6533"></stop><stop offset="0.38270" stop-color="#FF3F1F"></stop><stop offset="0.38783" stop-color="#FF3E1F"></stop><stop offset="0.69648" stop-color="#FF1F0F"></stop><stop offset="0.70161" stop-color="#FF1E0F"></stop><stop offset="0.85337" stop-color="#FF0F07"></stop><stop offset="0.85850" stop-color="#FF0E07"></stop><stop offset="0.93182" stop-color="#FF0703"></stop><stop offset="0.93695" stop-color="#FF0603"></stop><stop offset="0.97067" stop-color="#FF0301"></stop><stop offset="0.97581" stop-color="#FF0201"></stop><stop offset="0.99047" stop-color="#FF0100"></stop><stop offset="0.99560" stop-color="#FF0000"></stop><stop offset="1.00000" stop-color="#FF0000"></stop></radialGradient><radialGradient id="gradSh3.24" cx="0.0" cy="0.0" r="44.1" fx="0.0" fy="0.0" gradientUnits="userSpaceOnUse" gradientTransform="matrix(0.51, 0.00, 0.00, -0.51, 464.0, 406.0)"><stop offset="0.00000" stop-color="#B0E79A"></stop><stop offset="0.00147" stop-color="#B0E699"></stop><stop offset="0.55425" stop-color="#7FCA6F"></stop><stop offset="0.56158" stop-color="#7FCA6E"></stop><stop offset="1.00000" stop-color="#58B34D"></stop></radialGradient></defs><g transform="matrix(1.00, 0.00, -0.00, -1.00, 0.0, 768.0)"><g><clipPath id="clip0x7fd562044730"><path d="M 0.0 768.0 L 1024.0 768.0 L 1024.0 0.0 L 0.0 0.0 Z M 0.0 768.0 "></path></clipPath><g clip-path="url(#clip0x7fd562044730)"><path d="M 0.0 768.0 L 1024.0 768.0 L 1024.0 0.0 L 0.0 0.0 Z M 0.0 768.0 " fill="url(#gradSh1.22)"></path></g></g><image xlink:href="../../F140EE70-D776-4478-A23B-B70318473F19/assets/1345542094247ACCBEF18B7364B52BE8.png" width="455.00" height="68.00" transform="matrix(1.00, 0.00, -0.00, -1.00, 283.0, 703.0)"></image><text xml:space="preserve" font-family="HelveticaNeue-Bold,Helvetica Neue" font-weight="bold" font-size="64.0" fill="#FEFFFE" transform="matrix(1.00, 0.00, -0.00, -1.00, 286.9, 653.2)">W</text><text xml:space="preserve" font-family="HelveticaNeue-Bold,Helvetica Neue" font-weight="bold" font-size="64.0" fill="#FEFFFE" transform="matrix(1.00, 0.00, -0.00, -1.00, 347.3, 653.2)">i</text><text xml:space="preserve" font-family="HelveticaNeue-Bold,Helvetica Neue" font-weight="bold" font-size="64.0" fill="#FEFFFE" transform="matrix(1.00, 0.00, -0.00, -1.00, 363.8, 653.2)">-</text><text xml:space="preserve" font-family="HelveticaNeue-Bold,Helvetica Neue" font-weight="bold" font-size="64.0" fill="#FEFFFE" transform="matrix(1.00, 0.00, -0.00, -1.00, 389.9, 653.2)">F</text><text xml:space="preserve" font-family="HelveticaNeue-Bold,Helvetica Neue" font-weight="bold" font-size="64.0" fill="#FEFFFE" transform="matrix(1.00, 0.00, -0.00, -1.00, 427.8, 653.2)">i</text><text xml:space="preserve" font-family="HelveticaNeue-Bold,Helvetica Neue" font-weight="bold" font-size="64.0" fill="#FEFFFE" transform="matrix(1.00, 0.00, -0.00, -1.00, 444.4, 653.2)"> </text><text xml:space="preserve" font-family="HelveticaNeue-Bold,Helvetica Neue" font-weight="bold" font-size="64.0" fill="#FEFFFE" transform="matrix(1.00, 0.00, -0.00, -1.00, 462.1, 653.2)">D</text><text xml:space="preserve" font-family="HelveticaNeue-Bold,Helvetica Neue" font-weight="bold" font-size="64.0" fill="#FEFFFE" transform="matrix(1.00, 0.00, -0.00, -1.00, 509.6, 653.2)">i</text><text xml:space="preserve" font-family="HelveticaNeue-Bold,Helvetica Neue" font-weight="bold" font-size="64.0" fill="#FEFFFE" transform="matrix(1.00, 0.00, -0.00, -1.00, 526.1, 653.2)">r</text><text xml:space="preserve" font-family="HelveticaNeue-Bold,Helvetica Neue" font-weight="bold" font-size="64.0" fill="#FEFFFE" transform="matrix(1.00, 0.00, -0.00, -1.00, 549.8, 653.2)">e</text><text xml:space="preserve" font-family="HelveticaNeue-Bold,Helvetica Neue" font-weight="bold" font-size="64.0" fill="#FEFFFE" transform="matrix(1.00, 0.00, -0.00, -1.00, 586.6, 653.2)">c</text><text xml:space="preserve" font-family="HelveticaNeue-Bold,Helvetica Neue" font-weight="bold" font-size="64.0" fill="#FEFFFE" transform="matrix(1.00, 0.00, -0.00, -1.00, 623.3, 653.2)">t</text><text xml:space="preserve" font-family="HelveticaNeue-Bold,Helvetica Neue" font-weight="bold" font-size="64.0" fill="#FEFFFE" transform="matrix(1.00, 0.00, -0.00, -1.00, 645.8, 653.2)"> </text><text xml:space="preserve" font-family="HelveticaNeue-Bold,Helvetica Neue" font-weight="bold" font-size="64.0" fill="#FEFFFE" transform="matrix(1.00, 0.00, -0.00, -1.00, 663.6, 653.2)">(</text><text xml:space="preserve" font-family="HelveticaNeue-Bold,Helvetica Neue" font-weight="bold" font-size="64.0" fill="#FEFFFE" transform="matrix(1.00, 0.00, -0.00, -1.00, 682.6, 653.2)">2</text><text xml:space="preserve" font-family="HelveticaNeue-Bold,Helvetica Neue" font-weight="bold" font-size="64.0" fill="#FEFFFE" transform="matrix(1.00, 0.00, -0.00, -1.00, 718.1, 653.2)">)</text><text xml:space="preserve" font-family="HelveticaNeue,Helvetica Neue" font-size="14.0" fill="#EAEAEA" transform="matrix(1.00, 0.00, -0.00, -1.00, 508.1, 13.6)">5</text><image xlink:href="../../F140EE70-D776-4478-A23B-B70318473F19/assets/40847785DF1BFB9D55DBC581E79E7E61.png" width="270.00" height="273.00" transform="matrix(0.59, 0.00, -0.00, -0.59, 164.0, 535.0)"></image><image xlink:href="../../F140EE70-D776-4478-A23B-B70318473F19/assets/6DE72EBFBC690712BC8B321619BC6DE0.png" width="270.00" height="273.00" transform="matrix(0.59, 0.00, -0.00, -0.59, 704.0, 535.0)"></image><image xlink:href="../../F140EE70-D776-4478-A23B-B70318473F19/assets/F2AABFED203C1909D7DD881679DDC2DF.png" width="45.00" height="27.00" transform="matrix(1.00, 0.00, -0.00, -1.00, 488.0, 463.0)"></image><text xml:space="preserve" font-family="HelveticaNeue-Medium,Helvetica Neue" font-size="25.0" fill="#FEFFFE" transform="matrix(1.00, 0.00, -0.00, -1.00, 491.1, 442.4)">G</text><text xml:space="preserve" font-family="HelveticaNeue-Medium,Helvetica Neue" font-size="25.0" fill="#FEFFFE" transform="matrix(1.00, 0.00, -0.00, -1.00, 510.0, 442.4)">O</text><image xlink:href="../../F140EE70-D776-4478-A23B-B70318473F19/assets/60DDA7E4B07A2700E1A2EC22C8C23A85.png" width="74.00" height="28.00" transform="matrix(1.00, 0.00, -0.00, -1.00, 488.0, 418.0)"></image><text xml:space="preserve" font-family="HelveticaNeue-Medium,Helvetica Neue" font-size="25.0" fill="#FEFFFE" transform="matrix(1.00, 0.00, -0.00, -1.00, 491.4, 396.7)">C</text><text xml:space="preserve" font-family="HelveticaNeue-Medium,Helvetica Neue" font-size="25.0" fill="#FEFFFE" transform="matrix(1.00, 0.00, -0.00, -1.00, 509.5, 396.7)">l</text><text xml:space="preserve" font-family="HelveticaNeue-Medium,Helvetica Neue" font-size="25.0" fill="#FEFFFE" transform="matrix(1.00, 0.00, -0.00, -1.00, 515.5, 396.7)">i</text><text xml:space="preserve" font-family="HelveticaNeue-Medium,Helvetica Neue" font-size="25.0" fill="#FEFFFE" transform="matrix(1.00, 0.00, -0.00, -1.00, 521.5, 396.7)">e</text><text xml:space="preserve" font-family="HelveticaNeue-Medium,Helvetica Neue" font-size="25.0" fill="#FEFFFE" transform="matrix(1.00, 0.00, -0.00, -1.00, 535.4, 396.7)">n</text><text xml:space="preserve" font-family="HelveticaNeue-Medium,Helvetica Neue" font-size="25.0" fill="#FEFFFE" transform="matrix(1.00, 0.00, -0.00, -1.00, 549.8, 396.7)">t</text><g><clipPath id="clip0x7fd561f8af80"><path d="M 475.3 463.2 C 481.6 456.7 481.6 446.3 475.3 439.8 C 469.1 433.4 458.9 433.4 452.7 439.8 C 446.4 446.3 446.4 456.7 452.7 463.2 C 458.9 469.6 469.1 469.6 475.3 463.2 "></path></clipPath><g clip-path="url(#clip0x7fd561f8af80)"><g><clipPath id="clip0x7fd561f8b7e0"><path d="M 448.0 435.0 L 479.8 435.0 L 479.8 467.8 L 448.0 467.8 Z M 448.0 435.0 "></path></clipPath><g clip-path="url(#clip0x7fd561f8b7e0)"><path d="M 448.0 435.0 L 479.8 435.0 L 479.8 467.8 L 448.0 467.8 Z M 448.0 435.0 " fill="url(#gradSh2.23)"></path></g></g></g></g><g><clipPath id="clip0x7fd561fdf940"><path d="M 475.3 417.3 C 481.6 411.1 481.6 400.9 475.3 394.7 C 469.1 388.4 458.9 388.4 452.7 394.7 C 446.4 400.9 446.4 411.1 452.7 417.3 C 458.9 423.6 469.1 423.6 475.3 417.3 "></path></clipPath><g clip-path="url(#clip0x7fd561fdf940)"><g><clipPath id="clip0x7fd561fe01b0"><path d="M 448.0 390.0 L 479.8 390.0 L 479.8 421.8 L 448.0 421.8 Z M 448.0 390.0 "></path></clipPath><g clip-path="url(#clip0x7fd561fe01b0)"><path d="M 448.0 390.0 L 479.8 390.0 L 479.8 421.8 L 448.0 421.8 Z M 448.0 390.0 " fill="url(#gradSh3.24)"></path></g></g></g></g></g></svg>