<?xml version="1.0" encoding="UTF-8" standalone="no"?><svg xmlns="http://www.w3.org/2000/svg" xmlns:xlink="http://www.w3.org/1999/xlink" clip-rule="evenodd" stroke-miterlimit="10" viewBox="0 0 646 185"><desc>SVG generated by Keynote</desc><defs></defs><g transform="matrix(1.00, 0.00, -0.00, -1.00, 0.0, 185.0)"><g><clipPath id="clip0x7fd565ed4db0"><path d="M 367.2 184.4 L 367.2 99.5 L 282.3 99.5 L 282.3 184.4 Z M 367.2 184.4 "></path></clipPath><g clip-path="url(#clip0x7fd565ed4db0)"><image xlink:href="254E0C522B281B1FA510A2EF1C7FE21B.png" width="83.00" height="83.00" transform="matrix(0.00, -1.00, -1.00, 0.00, 366.2, 183.4)" opacity="0.27"></image></g></g><g><clipPath id="clip0x7fd565f75b60"><path d="M 367.2 184.4 L 367.2 99.5 L 282.3 99.5 L 282.3 184.4 Z M 367.2 184.4 "></path></clipPath><g clip-path="url(#clip0x7fd565f75b60)"><g><clipPath id="clip0x7fd565f76e40"><path d="M 313.0 148.0 L 288.3 148.0 L 324.8 108.4 L 361.2 148.0 L 336.0 148.0 L 336.0 181.0 L 313.0 181.0 Z M 313.1 148.1 "></path></clipPath><g clip-path="url(#clip0x7fd565f76e40)"><image xlink:href="../../7FE81E0A-49E6-4A94-8E1C-9E4E83430AD8/assets/66812298EC73D46BADCACA9889D2977F.png" width="512.00" height="512.00" transform="matrix(0.00, -0.50, -0.50, 0.00, 361.2, 181.0)"></image></g></g></g></g><image xlink:href="BA840DBB8849408ACEB752E1767AEA6E.png" width="277.00" height="33.00" transform="matrix(1.00, 0.00, -0.00, -1.00, 30.0, 76.0)"></image><g><clipPath id="clip0x7fd56602f700"><path d="M -10.8 -13.1 L 656.3 -13.1 L 656.3 93.6 L -10.8 93.6 Z M -10.8 -13.1 "></path></clipPath><g clip-path="url(#clip0x7fd56602f700)"><text xml:space="preserve" font-family="HelveticaNeue-Medium,Helvetica Neue" font-size="33.0" fill="#FEFFFE" transform="matrix(1.00, 0.00, -0.00, -1.00, 32.1, 49.9)">L</text><text xml:space="preserve" font-family="HelveticaNeue-Medium,Helvetica Neue" font-size="33.0" fill="#FEFFFE" transform="matrix(1.00, 0.00, -0.00, -1.00, 51.0, 49.9)">e</text><text xml:space="preserve" font-family="HelveticaNeue-Medium,Helvetica Neue" font-size="33.0" fill="#FEFFFE" transform="matrix(1.00, 0.00, -0.00, -1.00, 69.4, 49.9)"> </text><text xml:space="preserve" font-family="HelveticaNeue-Medium,Helvetica Neue" font-size="33.0" fill="#FEFFFE" transform="matrix(1.00, 0.00, -0.00, -1.00, 78.5, 49.9)">f</text><text xml:space="preserve" font-family="HelveticaNeue-Medium,Helvetica Neue" font-size="33.0" fill="#FEFFFE" transform="matrix(1.00, 0.00, -0.00, -1.00, 88.9, 49.9)">u</text><text xml:space="preserve" font-family="HelveticaNeue-Medium,Helvetica Neue" font-size="33.0" fill="#FEFFFE" transform="matrix(1.00, 0.00, -0.00, -1.00, 107.9, 49.9)">n</text><text xml:space="preserve" font-family="HelveticaNeue-Medium,Helvetica Neue" font-size="33.0" fill="#FEFFFE" transform="matrix(1.00, 0.00, -0.00, -1.00, 126.8, 49.9)">z</text><text xml:space="preserve" font-family="HelveticaNeue-Medium,Helvetica Neue" font-size="33.0" fill="#FEFFFE" transform="matrix(1.00, 0.00, -0.00, -1.00, 143.3, 49.9)">i</text><text xml:space="preserve" font-family="HelveticaNeue-Medium,Helvetica Neue" font-size="33.0" fill="#FEFFFE" transform="matrix(1.00, 0.00, -0.00, -1.00, 151.3, 49.9)">o</text><text xml:space="preserve" font-family="HelveticaNeue-Medium,Helvetica Neue" font-size="33.0" fill="#FEFFFE" transform="matrix(1.00, 0.00, -0.00, -1.00, 170.8, 49.9)">n</text><text xml:space="preserve" font-family="HelveticaNeue-Medium,Helvetica Neue" font-size="33.0" fill="#FEFFFE" transform="matrix(1.00, 0.00, -0.00, -1.00, 189.8, 49.9)">i</text><text xml:space="preserve" font-family="HelveticaNeue-Medium,Helvetica Neue" font-size="33.0" fill="#FEFFFE" transform="matrix(1.00, 0.00, -0.00, -1.00, 197.7, 49.9)"> </text><text xml:space="preserve" font-family="HelveticaNeue-Medium,Helvetica Neue" font-size="33.0" fill="#FEFFFE" transform="matrix(1.00, 0.00, -0.00, -1.00, 206.9, 49.9)">d</text><text xml:space="preserve" font-family="HelveticaNeue-Medium,Helvetica Neue" font-size="33.0" fill="#FEFFFE" transform="matrix(1.00, 0.00, -0.00, -1.00, 227.1, 49.9)">i</text><text xml:space="preserve" font-family="HelveticaNeue-Medium,Helvetica Neue" font-size="33.0" fill="#FEFFFE" transform="matrix(1.00, 0.00, -0.00, -1.00, 235.0, 49.9)"> </text><text xml:space="preserve" font-family="HelveticaNeue-Medium,Helvetica Neue" font-size="33.0" fill="#FEFFFE" transform="matrix(1.00, 0.00, -0.00, -1.00, 244.2, 49.9)">r</text><text xml:space="preserve" font-family="HelveticaNeue-Medium,Helvetica Neue" font-size="33.0" fill="#FEFFFE" transform="matrix(1.00, 0.00, -0.00, -1.00, 255.2, 49.9)">e</text><text xml:space="preserve" font-family="HelveticaNeue-Medium,Helvetica Neue" font-size="33.0" fill="#FEFFFE" transform="matrix(1.00, 0.00, -0.00, -1.00, 273.6, 49.9)">t</text><text xml:space="preserve" font-family="HelveticaNeue-Medium,Helvetica Neue" font-size="33.0" fill="#FEFFFE" transform="matrix(1.00, 0.00, -0.00, -1.00, 284.6, 49.9)">e</text></g></g><image xlink:href="A37F38D81F9162E04996BB07E79191CD.png" width="13.00" height="19.00" transform="matrix(1.00, 0.00, -0.00, -1.00, 301.0, 57.0)"></image><g><clipPath id="clip0x7fd565f77c90"><path d="M -10.8 -13.1 L 656.3 -13.1 L 656.3 93.6 L -10.8 93.6 Z M -10.8 -13.1 "></path></clipPath><g clip-path="url(#clip0x7fd565f77c90)"><text xml:space="preserve" font-family="HelveticaNeue-Medium,Helvetica Neue" font-size="33.0" fill="#FEFFFE" transform="matrix(1.00, 0.00, -0.00, -1.00, 302.9, 49.9)">,</text></g></g><image xlink:href="B17D765AF076D7273D26D110A6251730.png" width="299.00" height="39.00" transform="matrix(1.00, 0.00, -0.00, -1.00, 318.0, 76.0)"></image><g><clipPath id="clip0x7fd565f7a940"><path d="M -10.8 -13.1 L 656.3 -13.1 L 656.3 93.6 L -10.8 93.6 Z M -10.8 -13.1 "></path></clipPath><g clip-path="url(#clip0x7fd565f7a940)"><text xml:space="preserve" font-family="HelveticaNeue-Medium,Helvetica Neue" font-size="33.0" fill="#FEFFFE" transform="matrix(1.00, 0.00, -0.00, -1.00, 312.1, 49.9)"> </text><text xml:space="preserve" font-family="HelveticaNeue-Medium,Helvetica Neue" font-size="33.0" fill="#FEFFFE" transform="matrix(1.00, 0.00, -0.00, -1.00, 321.2, 49.9)">s</text><text xml:space="preserve" font-family="HelveticaNeue-Medium,Helvetica Neue" font-size="33.0" fill="#FEFFFE" transform="matrix(1.00, 0.00, -0.00, -1.00, 338.4, 49.9)">o</text><text xml:space="preserve" font-family="HelveticaNeue-Medium,Helvetica Neue" font-size="33.0" fill="#FEFFFE" transform="matrix(1.00, 0.00, -0.00, -1.00, 357.9, 49.9)">n</text><text xml:space="preserve" font-family="HelveticaNeue-Medium,Helvetica Neue" font-size="33.0" fill="#FEFFFE" transform="matrix(1.00, 0.00, -0.00, -1.00, 376.9, 49.9)">o</text><text xml:space="preserve" font-family="HelveticaNeue-Medium,Helvetica Neue" font-size="33.0" fill="#FEFFFE" transform="matrix(1.00, 0.00, -0.00, -1.00, 396.5, 49.9)"> </text><text xml:space="preserve" font-family="HelveticaNeue-Medium,Helvetica Neue" font-size="33.0" fill="#FEFFFE" transform="matrix(1.00, 0.00, -0.00, -1.00, 405.6, 49.9)">i</text><text xml:space="preserve" font-family="HelveticaNeue-Medium,Helvetica Neue" font-size="33.0" fill="#FEFFFE" transform="matrix(1.00, 0.00, -0.00, -1.00, 413.6, 49.9)">m</text><text xml:space="preserve" font-family="HelveticaNeue-Medium,Helvetica Neue" font-size="33.0" fill="#FEFFFE" transform="matrix(1.00, 0.00, -0.00, -1.00, 442.3, 49.9)">p</text><text xml:space="preserve" font-family="HelveticaNeue-Medium,Helvetica Neue" font-size="33.0" fill="#FEFFFE" transform="matrix(1.00, 0.00, -0.00, -1.00, 462.5, 49.9)">l</text><text xml:space="preserve" font-family="HelveticaNeue-Medium,Helvetica Neue" font-size="33.0" fill="#FEFFFE" transform="matrix(1.00, 0.00, -0.00, -1.00, 470.4, 49.9)">e</text><text xml:space="preserve" font-family="HelveticaNeue-Medium,Helvetica Neue" font-size="33.0" fill="#FEFFFE" transform="matrix(1.00, 0.00, -0.00, -1.00, 488.8, 49.9)">m</text><text xml:space="preserve" font-family="HelveticaNeue-Medium,Helvetica Neue" font-size="33.0" fill="#FEFFFE" transform="matrix(1.00, 0.00, -0.00, -1.00, 517.5, 49.9)">e</text><text xml:space="preserve" font-family="HelveticaNeue-Medium,Helvetica Neue" font-size="33.0" fill="#FEFFFE" transform="matrix(1.00, 0.00, -0.00, -1.00, 535.8, 49.9)">n</text><text xml:space="preserve" font-family="HelveticaNeue-Medium,Helvetica Neue" font-size="33.0" fill="#FEFFFE" transform="matrix(1.00, 0.00, -0.00, -1.00, 554.8, 49.9)">t</text><text xml:space="preserve" font-family="HelveticaNeue-Medium,Helvetica Neue" font-size="33.0" fill="#FEFFFE" transform="matrix(1.00, 0.00, -0.00, -1.00, 565.7, 49.9)">a</text><text xml:space="preserve" font-family="HelveticaNeue-Medium,Helvetica Neue" font-size="33.0" fill="#FEFFFE" transform="matrix(1.00, 0.00, -0.00, -1.00, 584.1, 49.9)">t</text><text xml:space="preserve" font-family="HelveticaNeue-Medium,Helvetica Neue" font-size="33.0" fill="#FEFFFE" transform="matrix(1.00, 0.00, -0.00, -1.00, 595.1, 49.9)">e</text><text xml:space="preserve" font-family="HelveticaNeue-Medium,Helvetica Neue" font-size="33.0" fill="#FEFFFE" transform="matrix(1.00, 0.00, -0.00, -1.00, 613.4, 49.9)"> </text><text xml:space="preserve" font-family="HelveticaNeue-Medium,Helvetica Neue" font-size="33.0" fill="#FEFFFE" transform="matrix(1.00, 0.00, -0.00, -1.00, 622.6, 49.9)"> </text></g></g><image xlink:href="5A41A04BDAA0E60F3E1092160FA23029.png" width="51.00" height="33.00" transform="matrix(1.00, 0.00, -0.00, -1.00, 26.0, 36.0)"></image><g><clipPath id="clip0x7fd565bd22b0"><path d="M -10.8 -13.1 L 656.3 -13.1 L 656.3 93.6 L -10.8 93.6 Z M -10.8 -13.1 "></path></clipPath><g clip-path="url(#clip0x7fd565bd22b0)"><text xml:space="preserve" font-family="HelveticaNeue-Medium,Helvetica Neue" font-size="33.0" fill="#FEFFFE" transform="matrix(1.00, 0.00, -0.00, -1.00, 29.0, 9.9)">n</text><text xml:space="preserve" font-family="HelveticaNeue-Medium,Helvetica Neue" font-size="33.0" fill="#FEFFFE" transform="matrix(1.00, 0.00, -0.00, -1.00, 47.9, 9.9)">e</text><text xml:space="preserve" font-family="HelveticaNeue-Medium,Helvetica Neue" font-size="33.0" fill="#FEFFFE" transform="matrix(1.00, 0.00, -0.00, -1.00, 66.3, 9.9)">l</text><text xml:space="preserve" font-family="HelveticaNeue-Medium,Helvetica Neue" font-size="33.0" fill="#FEFFFE" transform="matrix(1.00, 0.00, -0.00, -1.00, 74.2, 9.9)"> </text></g></g><image xlink:href="37A72181CBC7E2636069EBCB1F87B23E.png" width="140.00" height="33.00" transform="matrix(1.00, 0.00, -0.00, -1.00, 79.0, 36.0)"></image><g><clipPath id="clip0x7fd565f84540"><path d="M -10.8 -13.1 L 656.3 -13.1 L 656.3 93.6 L -10.8 93.6 Z M -10.8 -13.1 "></path></clipPath><g clip-path="url(#clip0x7fd565f84540)"><text xml:space="preserve" font-family="HelveticaNeue-Medium,Helvetica Neue" font-size="33.0" fill="#FF9300" transform="matrix(1.00, 0.00, -0.00, -1.00, 83.4, 9.9)">ï¬</text><text xml:space="preserve" font-family="HelveticaNeue-Medium,Helvetica Neue" font-size="33.0" fill="#FF9300" transform="matrix(1.00, 0.00, -0.00, -1.00, 101.7, 9.9)">r</text><text xml:space="preserve" font-family="HelveticaNeue-Medium,Helvetica Neue" font-size="33.0" fill="#FF9300" transform="matrix(1.00, 0.00, -0.00, -1.00, 113.3, 9.9)">m</text><text xml:space="preserve" font-family="HelveticaNeue-Medium,Helvetica Neue" font-size="33.0" fill="#FF9300" transform="matrix(1.00, 0.00, -0.00, -1.00, 142.1, 9.9)">w</text><text xml:space="preserve" font-family="HelveticaNeue-Medium,Helvetica Neue" font-size="33.0" fill="#FF9300" transform="matrix(1.00, 0.00, -0.00, -1.00, 167.7, 9.9)">a</text><text xml:space="preserve" font-family="HelveticaNeue-Medium,Helvetica Neue" font-size="33.0" fill="#FF9300" transform="matrix(1.00, 0.00, -0.00, -1.00, 186.1, 9.9)">r</text><text xml:space="preserve" font-family="HelveticaNeue-Medium,Helvetica Neue" font-size="33.0" fill="#FF9300" transform="matrix(1.00, 0.00, -0.00, -1.00, 197.1, 9.9)">e</text></g></g><g><clipPath id="clip0x7fd565f885e0"><path d="M -10.8 -13.1 L 656.3 -13.1 L 656.3 93.6 L -10.8 93.6 Z M -10.8 -13.1 "></path></clipPath><g clip-path="url(#clip0x7fd565f885e0)"><text xml:space="preserve" font-family="HelveticaNeue-Medium,Helvetica Neue" font-size="33.0" fill="#FEFFFE" transform="matrix(1.00, 0.00, -0.00, -1.00, 215.5, 9.9)"> </text></g></g><image xlink:href="3E13CEE53C2BAE93D0226319780041D8.png" width="183.00" height="39.00" transform="matrix(1.00, 0.00, -0.00, -1.00, 222.0, 36.0)"></image><g><clipPath id="clip0x7fd566042480"><path d="M -10.8 -13.1 L 656.3 -13.1 L 656.3 93.6 L -10.8 93.6 Z M -10.8 -13.1 "></path></clipPath><g clip-path="url(#clip0x7fd566042480)"><text xml:space="preserve" font-family="HelveticaNeue-Medium,Helvetica Neue" font-size="33.0" fill="#FF9300" transform="matrix(1.00, 0.00, -0.00, -1.00, 224.6, 9.9)">p</text><text xml:space="preserve" font-family="HelveticaNeue-Medium,Helvetica Neue" font-size="33.0" fill="#FF9300" transform="matrix(1.00, 0.00, -0.00, -1.00, 244.8, 9.9)">r</text><text xml:space="preserve" font-family="HelveticaNeue-Medium,Helvetica Neue" font-size="33.0" fill="#FF9300" transform="matrix(1.00, 0.00, -0.00, -1.00, 255.8, 9.9)">o</text><text xml:space="preserve" font-family="HelveticaNeue-Medium,Helvetica Neue" font-size="33.0" fill="#FF9300" transform="matrix(1.00, 0.00, -0.00, -1.00, 275.4, 9.9)">p</text><text xml:space="preserve" font-family="HelveticaNeue-Medium,Helvetica Neue" font-size="33.0" fill="#FF9300" transform="matrix(1.00, 0.00, -0.00, -1.00, 295.5, 9.9)">r</text><text xml:space="preserve" font-family="HelveticaNeue-Medium,Helvetica Neue" font-size="33.0" fill="#FF9300" transform="matrix(1.00, 0.00, -0.00, -1.00, 307.2, 9.9)">i</text><text xml:space="preserve" font-family="HelveticaNeue-Medium,Helvetica Neue" font-size="33.0" fill="#FF9300" transform="matrix(1.00, 0.00, -0.00, -1.00, 315.1, 9.9)">e</text><text xml:space="preserve" font-family="HelveticaNeue-Medium,Helvetica Neue" font-size="33.0" fill="#FF9300" transform="matrix(1.00, 0.00, -0.00, -1.00, 333.5, 9.9)">t</text><text xml:space="preserve" font-family="HelveticaNeue-Medium,Helvetica Neue" font-size="33.0" fill="#FF9300" transform="matrix(1.00, 0.00, -0.00, -1.00, 344.4, 9.9)">a</text><text xml:space="preserve" font-family="HelveticaNeue-Medium,Helvetica Neue" font-size="33.0" fill="#FF9300" transform="matrix(1.00, 0.00, -0.00, -1.00, 362.8, 9.9)">r</text><text xml:space="preserve" font-family="HelveticaNeue-Medium,Helvetica Neue" font-size="33.0" fill="#FF9300" transform="matrix(1.00, 0.00, -0.00, -1.00, 374.4, 9.9)">i</text><text xml:space="preserve" font-family="HelveticaNeue-Medium,Helvetica Neue" font-size="33.0" fill="#FF9300" transform="matrix(1.00, 0.00, -0.00, -1.00, 382.4, 9.9)">o</text></g></g><image xlink:href="7DB7D90FE423C67C7A71C50C7296E3B5.png" width="202.00" height="33.00" transform="matrix(1.00, 0.00, -0.00, -1.00, 408.0, 36.0)"></image><g><clipPath id="clip0x7fd565f8b6a0"><path d="M -10.8 -13.1 L 656.3 -13.1 L 656.3 93.6 L -10.8 93.6 Z M -10.8 -13.1 "></path></clipPath><g clip-path="url(#clip0x7fd565f8b6a0)"><text xml:space="preserve" font-family="HelveticaNeue-Medium,Helvetica Neue" font-size="33.0" fill="#FEFFFE" transform="matrix(1.00, 0.00, -0.00, -1.00, 401.9, 9.9)"> </text><text xml:space="preserve" font-family="HelveticaNeue-Medium,Helvetica Neue" font-size="33.0" fill="#FEFFFE" transform="matrix(1.00, 0.00, -0.00, -1.00, 411.1, 9.9)">d</text><text xml:space="preserve" font-family="HelveticaNeue-Medium,Helvetica Neue" font-size="33.0" fill="#FEFFFE" transform="matrix(1.00, 0.00, -0.00, -1.00, 431.3, 9.9)">i</text><text xml:space="preserve" font-family="HelveticaNeue-Medium,Helvetica Neue" font-size="33.0" fill="#FEFFFE" transform="matrix(1.00, 0.00, -0.00, -1.00, 439.2, 9.9)"> </text><text xml:space="preserve" font-family="HelveticaNeue-Medium,Helvetica Neue" font-size="33.0" fill="#FEFFFE" transform="matrix(1.00, 0.00, -0.00, -1.00, 448.4, 9.9)">B</text><text xml:space="preserve" font-family="HelveticaNeue-Medium,Helvetica Neue" font-size="33.0" fill="#FEFFFE" transform="matrix(1.00, 0.00, -0.00, -1.00, 471.6, 9.9)">r</text><text xml:space="preserve" font-family="HelveticaNeue-Medium,Helvetica Neue" font-size="33.0" fill="#FEFFFE" transform="matrix(1.00, 0.00, -0.00, -1.00, 482.7, 9.9)">o</text><text xml:space="preserve" font-family="HelveticaNeue-Medium,Helvetica Neue" font-size="33.0" fill="#FEFFFE" transform="matrix(1.00, 0.00, -0.00, -1.00, 502.2, 9.9)">a</text><text xml:space="preserve" font-family="HelveticaNeue-Medium,Helvetica Neue" font-size="33.0" fill="#FEFFFE" transform="matrix(1.00, 0.00, -0.00, -1.00, 520.6, 9.9)">d</text><text xml:space="preserve" font-family="HelveticaNeue-Medium,Helvetica Neue" font-size="33.0" fill="#FEFFFE" transform="matrix(1.00, 0.00, -0.00, -1.00, 540.7, 9.9)">c</text><text xml:space="preserve" font-family="HelveticaNeue-Medium,Helvetica Neue" font-size="33.0" fill="#FEFFFE" transform="matrix(1.00, 0.00, -0.00, -1.00, 559.1, 9.9)">o</text><text xml:space="preserve" font-family="HelveticaNeue-Medium,Helvetica Neue" font-size="33.0" fill="#FEFFFE" transform="matrix(1.00, 0.00, -0.00, -1.00, 578.6, 9.9)">m</text></g></g><image xlink:href="C3726AF2DF42D5E2A7B66B7919A5E635.png" width="14.00" height="14.00" transform="matrix(1.00, 0.00, -0.00, -1.00, 605.0, 17.0)"></image><g><clipPath id="clip0x7fd56604a030"><path d="M -10.8 -13.1 L 656.3 -13.1 L 656.3 93.6 L -10.8 93.6 Z M -10.8 -13.1 "></path></clipPath><g clip-path="url(#clip0x7fd56604a030)"><text xml:space="preserve" font-family="HelveticaNeue-Medium,Helvetica Neue" font-size="33.0" fill="#FEFFFE" transform="matrix(1.00, 0.00, -0.00, -1.00, 607.4, 9.9)">.</text></g></g></g></svg>