<?xml version="1.0" encoding="UTF-8" standalone="no"?><svg xmlns="http://www.w3.org/2000/svg" xmlns:xlink="http://www.w3.org/1999/xlink" clip-rule="evenodd" stroke-miterlimit="10" viewBox="0 0 1024 768"><desc>SVG generated by Keynote</desc><defs><linearGradient id="gradSh1.89" x1="0.0" y1="0.0" x2="100.0" y2="0.0" gradientUnits="userSpaceOnUse" gradientTransform="matrix(0.00, -7.70, -10.26, 0.00, 512.0, 769.0)"><stop offset="0.00000" stop-color="#5A91D8"></stop><stop offset="0.00367" stop-color="#5A91D7"></stop><stop offset="0.18402" stop-color="#4D7FBF"></stop><stop offset="0.18475" stop-color="#4C7FBF"></stop><stop offset="0.66422" stop-color="#2A517F"></stop><stop offset="0.67082" stop-color="#29517F"></stop><stop offset="0.84824" stop-color="#1D3F67"></stop><stop offset="0.85117" stop-color="#1C3F67"></stop><stop offset="1.00000" stop-color="#123153"></stop></linearGradient></defs><g transform="matrix(1.00, 0.00, -0.00, -1.00, 0.0, 768.0)"><g><clipPath id="clip0x7fd5662363b0"><path d="M 0.0 768.0 L 1024.0 768.0 L 1024.0 0.0 L 0.0 0.0 Z M 0.0 768.0 "></path></clipPath><g clip-path="url(#clip0x7fd5662363b0)"><path d="M 0.0 768.0 L 1024.0 768.0 L 1024.0 0.0 L 0.0 0.0 Z M 0.0 768.0 " fill="url(#gradSh1.89)"></path></g></g><image xlink:href="../../6A47465D-1B58-4D10-B43F-DB14EF29E90C/assets/4431BE148CDB4222A8D7EEAC7EE476D5.png" width="184.00" height="56.00" transform="matrix(1.00, 0.00, -0.00, -1.00, 421.0, 409.0)"></image><text xml:space="preserve" font-family="HelveticaNeue-Bold,Helvetica Neue" font-weight="bold" font-size="64.0" fill="#FEFFFE" transform="matrix(1.00, 0.00, -0.00, -1.00, 421.4, 360.3)">D</text><text xml:space="preserve" font-family="HelveticaNeue-Bold,Helvetica Neue" font-weight="bold" font-size="64.0" fill="#FEFFFE" transform="matrix(1.00, 0.00, -0.00, -1.00, 468.8, 360.3)">e</text><text xml:space="preserve" font-family="HelveticaNeue-Bold,Helvetica Neue" font-weight="bold" font-size="64.0" fill="#FEFFFE" transform="matrix(1.00, 0.00, -0.00, -1.00, 505.5, 360.3)">m</text><text xml:space="preserve" font-family="HelveticaNeue-Bold,Helvetica Neue" font-weight="bold" font-size="64.0" fill="#FEFFFE" transform="matrix(1.00, 0.00, -0.00, -1.00, 563.5, 360.3)">o</text><text xml:space="preserve" font-family="HelveticaNeue,Helvetica Neue" font-size="14.0" fill="#EAEAEA" transform="matrix(1.00, 0.00, -0.00, -1.00, 504.2, 13.6)">2</text><text xml:space="preserve" font-family="HelveticaNeue,Helvetica Neue" font-size="14.0" fill="#EAEAEA" transform="matrix(1.00, 0.00, -0.00, -1.00, 512.0, 13.6)">3</text></g></svg>