<?xml version="1.0" encoding="UTF-8" standalone="no"?><svg xmlns="http://www.w3.org/2000/svg" xmlns:xlink="http://www.w3.org/1999/xlink" clip-rule="evenodd" stroke-miterlimit="10" viewBox="0 0 1024 768"><desc>SVG generated by Keynote</desc><defs><linearGradient id="gradSh1.97" x1="0.0" y1="0.0" x2="100.0" y2="0.0" gradientUnits="userSpaceOnUse" gradientTransform="matrix(0.00, -7.70, -10.26, 0.00, 512.0, 769.0)"><stop offset="0.00000" stop-color="#5A91D8"></stop><stop offset="0.00367" stop-color="#5A91D7"></stop><stop offset="0.18402" stop-color="#4D7FBF"></stop><stop offset="0.18475" stop-color="#4C7FBF"></stop><stop offset="0.66422" stop-color="#2A517F"></stop><stop offset="0.67082" stop-color="#29517F"></stop><stop offset="0.84824" stop-color="#1D3F67"></stop><stop offset="0.85117" stop-color="#1C3F67"></stop><stop offset="1.00000" stop-color="#123153"></stop></linearGradient></defs><g transform="matrix(1.00, 0.00, -0.00, -1.00, 0.0, 768.0)"><g><clipPath id="clip0x7fcb7f94b9f0"><path d="M 0.0 768.0 L 1024.0 768.0 L 1024.0 0.0 L 0.0 0.0 Z M 0.0 768.0 "></path></clipPath><g clip-path="url(#clip0x7fcb7f94b9f0)"><path d="M 0.0 768.0 L 1024.0 768.0 L 1024.0 0.0 L 0.0 0.0 Z M 0.0 768.0 " fill="url(#gradSh1.97)"></path></g></g><image xlink:href="../../6A47465D-1B58-4D10-B43F-DB14EF29E90C/assets/4BE3FCA037512F66B80B962F69982D0D.png" width="157.00" height="49.00" transform="matrix(1.00, 0.00, -0.00, -1.00, 434.0, 632.0)"></image><text xml:space="preserve" font-family="HelveticaNeue-Bold,Helvetica Neue" font-weight="bold" font-size="54.4" fill="#FEFFFE" transform="matrix(1.00, 0.00, -0.00, -1.00, 435.0, 590.6)">D</text><text xml:space="preserve" font-family="HelveticaNeue-Bold,Helvetica Neue" font-weight="bold" font-size="54.4" fill="#FEFFFE" transform="matrix(1.00, 0.00, -0.00, -1.00, 475.3, 590.6)">e</text><text xml:space="preserve" font-family="HelveticaNeue-Bold,Helvetica Neue" font-weight="bold" font-size="54.4" fill="#FEFFFE" transform="matrix(1.00, 0.00, -0.00, -1.00, 506.5, 590.6)">m</text><text xml:space="preserve" font-family="HelveticaNeue-Bold,Helvetica Neue" font-weight="bold" font-size="54.4" fill="#FEFFFE" transform="matrix(1.00, 0.00, -0.00, -1.00, 555.8, 590.6)">o</text><text xml:space="preserve" font-family="HelveticaNeue-Bold,Helvetica Neue" font-weight="bold" font-size="54.4" fill="#FEFFFE" transform="matrix(1.00, 0.00, -0.00, -1.00, 589.0, 590.6)"> </text><image xlink:href="../../6A47465D-1B58-4D10-B43F-DB14EF29E90C/assets/0A711AA140BAEEDF5211ED50CEA8FD68.png" width="795.00" height="58.00" transform="matrix(1.00, 0.00, -0.00, -1.00, 115.0, 565.0)"></image><text xml:space="preserve" font-family="HelveticaNeue-Bold,Helvetica Neue" font-weight="bold" font-size="54.4" fill="#FEFFFE" transform="matrix(1.00, 0.00, -0.00, -1.00, 116.2, 523.6)">p</text><text xml:space="preserve" font-family="HelveticaNeue-Bold,Helvetica Neue" font-weight="bold" font-size="54.4" fill="#FEFFFE" transform="matrix(1.00, 0.00, -0.00, -1.00, 149.4, 523.6)">e</text><text xml:space="preserve" font-family="HelveticaNeue-Bold,Helvetica Neue" font-weight="bold" font-size="54.4" fill="#FEFFFE" transform="matrix(1.00, 0.00, -0.00, -1.00, 180.6, 523.6)">r</text><text xml:space="preserve" font-family="HelveticaNeue-Bold,Helvetica Neue" font-weight="bold" font-size="54.4" fill="#FEFFFE" transform="matrix(1.00, 0.00, -0.00, -1.00, 201.8, 523.6)"> </text><text xml:space="preserve" font-family="HelveticaNeue-Bold,Helvetica Neue" font-weight="bold" font-size="54.4" fill="#FEFFFE" transform="matrix(1.00, 0.00, -0.00, -1.00, 216.9, 523.6)">m</text><text xml:space="preserve" font-family="HelveticaNeue-Bold,Helvetica Neue" font-weight="bold" font-size="54.4" fill="#FEFFFE" transform="matrix(1.00, 0.00, -0.00, -1.00, 266.2, 523.6)">o</text><text xml:space="preserve" font-family="HelveticaNeue-Bold,Helvetica Neue" font-weight="bold" font-size="54.4" fill="#FEFFFE" transform="matrix(1.00, 0.00, -0.00, -1.00, 299.5, 523.6)">t</text><text xml:space="preserve" font-family="HelveticaNeue-Bold,Helvetica Neue" font-weight="bold" font-size="54.4" fill="#FEFFFE" transform="matrix(1.00, 0.00, -0.00, -1.00, 318.6, 523.6)">i</text><text xml:space="preserve" font-family="HelveticaNeue-Bold,Helvetica Neue" font-weight="bold" font-size="54.4" fill="#FEFFFE" transform="matrix(1.00, 0.00, -0.00, -1.00, 332.6, 523.6)">v</text><text xml:space="preserve" font-family="HelveticaNeue-Bold,Helvetica Neue" font-weight="bold" font-size="54.4" fill="#FEFFFE" transform="matrix(1.00, 0.00, -0.00, -1.00, 360.9, 523.6)">i</text><text xml:space="preserve" font-family="HelveticaNeue-Bold,Helvetica Neue" font-weight="bold" font-size="54.4" fill="#FEFFFE" transform="matrix(1.00, 0.00, -0.00, -1.00, 375.0, 523.6)"> </text><text xml:space="preserve" font-family="HelveticaNeue-Bold,Helvetica Neue" font-weight="bold" font-size="54.4" fill="#FEFFFE" transform="matrix(1.00, 0.00, -0.00, -1.00, 390.1, 523.6)">d</text><text xml:space="preserve" font-family="HelveticaNeue-Bold,Helvetica Neue" font-weight="bold" font-size="54.4" fill="#FEFFFE" transform="matrix(1.00, 0.00, -0.00, -1.00, 423.3, 523.6)">i</text><text xml:space="preserve" font-family="HelveticaNeue-Bold,Helvetica Neue" font-weight="bold" font-size="54.4" fill="#FEFFFE" transform="matrix(1.00, 0.00, -0.00, -1.00, 437.4, 523.6)"> </text><text xml:space="preserve" font-family="HelveticaNeue-Bold,Helvetica Neue" font-weight="bold" font-size="54.4" fill="#FEFFFE" transform="matrix(1.00, 0.00, -0.00, -1.00, 452.5, 523.6)">s</text><text xml:space="preserve" font-family="HelveticaNeue-Bold,Helvetica Neue" font-weight="bold" font-size="54.4" fill="#FEFFFE" transform="matrix(1.00, 0.00, -0.00, -1.00, 481.7, 523.6)">p</text><text xml:space="preserve" font-family="HelveticaNeue-Bold,Helvetica Neue" font-weight="bold" font-size="54.4" fill="#FEFFFE" transform="matrix(1.00, 0.00, -0.00, -1.00, 514.9, 523.6)">a</text><text xml:space="preserve" font-family="HelveticaNeue-Bold,Helvetica Neue" font-weight="bold" font-size="54.4" fill="#FEFFFE" transform="matrix(1.00, 0.00, -0.00, -1.00, 546.2, 523.6)">z</text><text xml:space="preserve" font-family="HelveticaNeue-Bold,Helvetica Neue" font-weight="bold" font-size="54.4" fill="#FEFFFE" transform="matrix(1.00, 0.00, -0.00, -1.00, 574.4, 523.6)">i</text><text xml:space="preserve" font-family="HelveticaNeue-Bold,Helvetica Neue" font-weight="bold" font-size="54.4" fill="#FEFFFE" transform="matrix(1.00, 0.00, -0.00, -1.00, 588.4, 523.6)">o</text><text xml:space="preserve" font-family="HelveticaNeue-Bold,Helvetica Neue" font-weight="bold" font-size="54.4" fill="#FEFFFE" transform="matrix(1.00, 0.00, -0.00, -1.00, 621.7, 523.6)"> </text><text xml:space="preserve" font-family="HelveticaNeue-Bold,Helvetica Neue" font-weight="bold" font-size="54.4" fill="#FEFFFE" transform="matrix(1.00, 0.00, -0.00, -1.00, 636.8, 523.6)">n</text><text xml:space="preserve" font-family="HelveticaNeue-Bold,Helvetica Neue" font-weight="bold" font-size="54.4" fill="#FEFFFE" transform="matrix(1.00, 0.00, -0.00, -1.00, 669.1, 523.6)">o</text><text xml:space="preserve" font-family="HelveticaNeue-Bold,Helvetica Neue" font-weight="bold" font-size="54.4" fill="#FEFFFE" transform="matrix(1.00, 0.00, -0.00, -1.00, 702.3, 523.6)">n</text><text xml:space="preserve" font-family="HelveticaNeue-Bold,Helvetica Neue" font-weight="bold" font-size="54.4" fill="#FEFFFE" transform="matrix(1.00, 0.00, -0.00, -1.00, 734.6, 523.6)"> </text><text xml:space="preserve" font-family="HelveticaNeue-Bold,Helvetica Neue" font-weight="bold" font-size="54.4" fill="#FEFFFE" transform="matrix(1.00, 0.00, -0.00, -1.00, 749.7, 523.6)">p</text><text xml:space="preserve" font-family="HelveticaNeue-Bold,Helvetica Neue" font-weight="bold" font-size="54.4" fill="#FEFFFE" transform="matrix(1.00, 0.00, -0.00, -1.00, 782.9, 523.6)">o</text><text xml:space="preserve" font-family="HelveticaNeue-Bold,Helvetica Neue" font-weight="bold" font-size="54.4" fill="#FEFFFE" transform="matrix(1.00, 0.00, -0.00, -1.00, 816.2, 523.6)">s</text><text xml:space="preserve" font-family="HelveticaNeue-Bold,Helvetica Neue" font-weight="bold" font-size="54.4" fill="#FEFFFE" transform="matrix(1.00, 0.00, -0.00, -1.00, 845.4, 523.6)">s</text><text xml:space="preserve" font-family="HelveticaNeue-Bold,Helvetica Neue" font-weight="bold" font-size="54.4" fill="#FEFFFE" transform="matrix(1.00, 0.00, -0.00, -1.00, 874.6, 523.6)">o</text><text xml:space="preserve" font-family="HelveticaNeue-Bold,Helvetica Neue" font-weight="bold" font-size="54.4" fill="#FEFFFE" transform="matrix(1.00, 0.00, -0.00, -1.00, 907.8, 523.6)"> </text><image xlink:href="../../6A47465D-1B58-4D10-B43F-DB14EF29E90C/assets/A541F312740E8228D51B25EF1BC344E2.png" width="788.00" height="59.00" transform="matrix(1.00, 0.00, -0.00, -1.00, 118.0, 498.0)"></image><text xml:space="preserve" font-family="HelveticaNeue-Bold,Helvetica Neue" font-weight="bold" font-size="54.4" fill="#FEFFFE" transform="matrix(1.00, 0.00, -0.00, -1.00, 119.2, 456.6)">i</text><text xml:space="preserve" font-family="HelveticaNeue-Bold,Helvetica Neue" font-weight="bold" font-size="54.4" fill="#FEFFFE" transform="matrix(1.00, 0.00, -0.00, -1.00, 133.2, 456.6)">n</text><text xml:space="preserve" font-family="HelveticaNeue-Bold,Helvetica Neue" font-weight="bold" font-size="54.4" fill="#FEFFFE" transform="matrix(1.00, 0.00, -0.00, -1.00, 165.5, 456.6)">t</text><text xml:space="preserve" font-family="HelveticaNeue-Bold,Helvetica Neue" font-weight="bold" font-size="54.4" fill="#FEFFFE" transform="matrix(1.00, 0.00, -0.00, -1.00, 184.6, 456.6)">e</text><text xml:space="preserve" font-family="HelveticaNeue-Bold,Helvetica Neue" font-weight="bold" font-size="54.4" fill="#FEFFFE" transform="matrix(1.00, 0.00, -0.00, -1.00, 215.9, 456.6)">g</text><text xml:space="preserve" font-family="HelveticaNeue-Bold,Helvetica Neue" font-weight="bold" font-size="54.4" fill="#FEFFFE" transform="matrix(1.00, 0.00, -0.00, -1.00, 249.1, 456.6)">r</text><text xml:space="preserve" font-family="HelveticaNeue-Bold,Helvetica Neue" font-weight="bold" font-size="54.4" fill="#FEFFFE" transform="matrix(1.00, 0.00, -0.00, -1.00, 270.3, 456.6)">a</text><text xml:space="preserve" font-family="HelveticaNeue-Bold,Helvetica Neue" font-weight="bold" font-size="54.4" fill="#FEFFFE" transform="matrix(1.00, 0.00, -0.00, -1.00, 301.5, 456.6)">r</text><text xml:space="preserve" font-family="HelveticaNeue-Bold,Helvetica Neue" font-weight="bold" font-size="54.4" fill="#FEFFFE" transform="matrix(1.00, 0.00, -0.00, -1.00, 322.7, 456.6)">l</text><text xml:space="preserve" font-family="HelveticaNeue-Bold,Helvetica Neue" font-weight="bold" font-size="54.4" fill="#FEFFFE" transform="matrix(1.00, 0.00, -0.00, -1.00, 336.7, 456.6)">o</text><text xml:space="preserve" font-family="HelveticaNeue-Bold,Helvetica Neue" font-weight="bold" font-size="54.4" fill="#FEFFFE" transform="matrix(1.00, 0.00, -0.00, -1.00, 369.9, 456.6)"> </text><text xml:space="preserve" font-family="HelveticaNeue-Bold,Helvetica Neue" font-weight="bold" font-size="54.4" fill="#FEFFFE" transform="matrix(1.00, 0.00, -0.00, -1.00, 385.1, 456.6)">n</text><text xml:space="preserve" font-family="HelveticaNeue-Bold,Helvetica Neue" font-weight="bold" font-size="54.4" fill="#FEFFFE" transform="matrix(1.00, 0.00, -0.00, -1.00, 417.3, 456.6)">e</text><text xml:space="preserve" font-family="HelveticaNeue-Bold,Helvetica Neue" font-weight="bold" font-size="54.4" fill="#FEFFFE" transform="matrix(1.00, 0.00, -0.00, -1.00, 448.5, 456.6)">l</text><text xml:space="preserve" font-family="HelveticaNeue-Bold,Helvetica Neue" font-weight="bold" font-size="54.4" fill="#FEFFFE" transform="matrix(1.00, 0.00, -0.00, -1.00, 462.6, 456.6)">l</text><text xml:space="preserve" font-family="HelveticaNeue-Bold,Helvetica Neue" font-weight="bold" font-size="54.4" fill="#FEFFFE" transform="matrix(1.00, 0.00, -0.00, -1.00, 476.6, 456.6)">a</text><text xml:space="preserve" font-family="HelveticaNeue-Bold,Helvetica Neue" font-weight="bold" font-size="54.4" fill="#FEFFFE" transform="matrix(1.00, 0.00, -0.00, -1.00, 507.8, 456.6)"> </text><text xml:space="preserve" font-family="HelveticaNeue-Bold,Helvetica Neue" font-weight="bold" font-size="54.4" fill="#FEFFFE" transform="matrix(1.00, 0.00, -0.00, -1.00, 523.0, 456.6)">p</text><text xml:space="preserve" font-family="HelveticaNeue-Bold,Helvetica Neue" font-weight="bold" font-size="54.4" fill="#FEFFFE" transform="matrix(1.00, 0.00, -0.00, -1.00, 556.2, 456.6)">r</text><text xml:space="preserve" font-family="HelveticaNeue-Bold,Helvetica Neue" font-weight="bold" font-size="54.4" fill="#FEFFFE" transform="matrix(1.00, 0.00, -0.00, -1.00, 576.4, 456.6)">e</text><text xml:space="preserve" font-family="HelveticaNeue-Bold,Helvetica Neue" font-weight="bold" font-size="54.4" fill="#FEFFFE" transform="matrix(1.00, 0.00, -0.00, -1.00, 607.6, 456.6)">s</text><text xml:space="preserve" font-family="HelveticaNeue-Bold,Helvetica Neue" font-weight="bold" font-size="54.4" fill="#FEFFFE" transform="matrix(1.00, 0.00, -0.00, -1.00, 636.8, 456.6)">e</text><text xml:space="preserve" font-family="HelveticaNeue-Bold,Helvetica Neue" font-weight="bold" font-size="54.4" fill="#FEFFFE" transform="matrix(1.00, 0.00, -0.00, -1.00, 668.0, 456.6)">n</text><text xml:space="preserve" font-family="HelveticaNeue-Bold,Helvetica Neue" font-weight="bold" font-size="54.4" fill="#FEFFFE" transform="matrix(1.00, 0.00, -0.00, -1.00, 700.3, 456.6)">t</text><text xml:space="preserve" font-family="HelveticaNeue-Bold,Helvetica Neue" font-weight="bold" font-size="54.4" fill="#FEFFFE" transform="matrix(1.00, 0.00, -0.00, -1.00, 719.5, 456.6)">a</text><text xml:space="preserve" font-family="HelveticaNeue-Bold,Helvetica Neue" font-weight="bold" font-size="54.4" fill="#FEFFFE" transform="matrix(1.00, 0.00, -0.00, -1.00, 750.7, 456.6)">z</text><text xml:space="preserve" font-family="HelveticaNeue-Bold,Helvetica Neue" font-weight="bold" font-size="54.4" fill="#FEFFFE" transform="matrix(1.00, 0.00, -0.00, -1.00, 778.9, 456.6)">i</text><text xml:space="preserve" font-family="HelveticaNeue-Bold,Helvetica Neue" font-weight="bold" font-size="54.4" fill="#FEFFFE" transform="matrix(1.00, 0.00, -0.00, -1.00, 792.9, 456.6)">o</text><text xml:space="preserve" font-family="HelveticaNeue-Bold,Helvetica Neue" font-weight="bold" font-size="54.4" fill="#FEFFFE" transform="matrix(1.00, 0.00, -0.00, -1.00, 826.2, 456.6)">n</text><text xml:space="preserve" font-family="HelveticaNeue-Bold,Helvetica Neue" font-weight="bold" font-size="54.4" fill="#FEFFFE" transform="matrix(1.00, 0.00, -0.00, -1.00, 858.4, 456.6)">e</text><text xml:space="preserve" font-family="HelveticaNeue-Bold,Helvetica Neue" font-weight="bold" font-size="54.4" fill="#FEFFFE" transform="matrix(1.00, 0.00, -0.00, -1.00, 889.7, 456.6)">,</text><text xml:space="preserve" font-family="HelveticaNeue-Bold,Helvetica Neue" font-weight="bold" font-size="54.4" fill="#FEFFFE" transform="matrix(1.00, 0.00, -0.00, -1.00, 904.8, 456.6)"> </text><image xlink:href="../../6A47465D-1B58-4D10-B43F-DB14EF29E90C/assets/69106903DA4732ED30F1BA6DFBDF8242.png" width="814.00" height="58.00" transform="matrix(1.00, 0.00, -0.00, -1.00, 105.0, 431.0)"></image><text xml:space="preserve" font-family="HelveticaNeue-Bold,Helvetica Neue" font-weight="bold" font-size="54.4" fill="#FEFFFE" transform="matrix(1.00, 0.00, -0.00, -1.00, 107.6, 389.6)">q</text><text xml:space="preserve" font-family="HelveticaNeue-Bold,Helvetica Neue" font-weight="bold" font-size="54.4" fill="#FEFFFE" transform="matrix(1.00, 0.00, -0.00, -1.00, 140.8, 389.6)">u</text><text xml:space="preserve" font-family="HelveticaNeue-Bold,Helvetica Neue" font-weight="bold" font-size="54.4" fill="#FEFFFE" transform="matrix(1.00, 0.00, -0.00, -1.00, 173.1, 389.6)">i</text><text xml:space="preserve" font-family="HelveticaNeue-Bold,Helvetica Neue" font-weight="bold" font-size="54.4" fill="#FEFFFE" transform="matrix(1.00, 0.00, -0.00, -1.00, 187.1, 389.6)">n</text><text xml:space="preserve" font-family="HelveticaNeue-Bold,Helvetica Neue" font-weight="bold" font-size="54.4" fill="#FEFFFE" transform="matrix(1.00, 0.00, -0.00, -1.00, 219.4, 389.6)">d</text><text xml:space="preserve" font-family="HelveticaNeue-Bold,Helvetica Neue" font-weight="bold" font-size="54.4" fill="#FEFFFE" transform="matrix(1.00, 0.00, -0.00, -1.00, 252.6, 389.6)">i</text><text xml:space="preserve" font-family="HelveticaNeue-Bold,Helvetica Neue" font-weight="bold" font-size="54.4" fill="#FEFFFE" transform="matrix(1.00, 0.00, -0.00, -1.00, 266.6, 389.6)"> </text><text xml:space="preserve" font-family="HelveticaNeue-Bold,Helvetica Neue" font-weight="bold" font-size="54.4" fill="#FEFFFE" transform="matrix(1.00, 0.00, -0.00, -1.00, 281.8, 389.6)">l</text><text xml:space="preserve" font-family="HelveticaNeue-Bold,Helvetica Neue" font-weight="bold" font-size="54.4" fill="#FEFFFE" transform="matrix(1.00, 0.00, -0.00, -1.00, 295.8, 389.6)">’</text><text xml:space="preserve" font-family="HelveticaNeue-Bold,Helvetica Neue" font-weight="bold" font-size="54.4" fill="#FEFFFE" transform="matrix(1.00, 0.00, -0.00, -1.00, 310.9, 389.6)">h</text><text xml:space="preserve" font-family="HelveticaNeue-Bold,Helvetica Neue" font-weight="bold" font-size="54.4" fill="#FEFFFE" transform="matrix(1.00, 0.00, -0.00, -1.00, 343.2, 389.6)">o</text><text xml:space="preserve" font-family="HelveticaNeue-Bold,Helvetica Neue" font-weight="bold" font-size="54.4" fill="#FEFFFE" transform="matrix(1.00, 0.00, -0.00, -1.00, 376.4, 389.6)"> </text><text xml:space="preserve" font-family="HelveticaNeue-Bold,Helvetica Neue" font-weight="bold" font-size="54.4" fill="#FEFFFE" transform="matrix(1.00, 0.00, -0.00, -1.00, 391.5, 389.6)">c</text><text xml:space="preserve" font-family="HelveticaNeue-Bold,Helvetica Neue" font-weight="bold" font-size="54.4" fill="#FEFFFE" transform="matrix(1.00, 0.00, -0.00, -1.00, 422.8, 389.6)">a</text><text xml:space="preserve" font-family="HelveticaNeue-Bold,Helvetica Neue" font-weight="bold" font-size="54.4" fill="#FEFFFE" transform="matrix(1.00, 0.00, -0.00, -1.00, 454.0, 389.6)">r</text><text xml:space="preserve" font-family="HelveticaNeue-Bold,Helvetica Neue" font-weight="bold" font-size="54.4" fill="#FEFFFE" transform="matrix(1.00, 0.00, -0.00, -1.00, 475.1, 389.6)">i</text><text xml:space="preserve" font-family="HelveticaNeue-Bold,Helvetica Neue" font-weight="bold" font-size="54.4" fill="#FEFFFE" transform="matrix(1.00, 0.00, -0.00, -1.00, 489.2, 389.6)">c</text><text xml:space="preserve" font-family="HelveticaNeue-Bold,Helvetica Neue" font-weight="bold" font-size="54.4" fill="#FEFFFE" transform="matrix(1.00, 0.00, -0.00, -1.00, 520.4, 389.6)">a</text><text xml:space="preserve" font-family="HelveticaNeue-Bold,Helvetica Neue" font-weight="bold" font-size="54.4" fill="#FEFFFE" transform="matrix(1.00, 0.00, -0.00, -1.00, 551.6, 389.6)">t</text><text xml:space="preserve" font-family="HelveticaNeue-Bold,Helvetica Neue" font-weight="bold" font-size="54.4" fill="#FEFFFE" transform="matrix(1.00, 0.00, -0.00, -1.00, 570.8, 389.6)">o</text><text xml:space="preserve" font-family="HelveticaNeue-Bold,Helvetica Neue" font-weight="bold" font-size="54.4" fill="#FEFFFE" transform="matrix(1.00, 0.00, -0.00, -1.00, 604.0, 389.6)"> </text><text xml:space="preserve" font-family="HelveticaNeue-Bold,Helvetica Neue" font-weight="bold" font-size="54.4" fill="#FEFFFE" transform="matrix(1.00, 0.00, -0.00, -1.00, 619.1, 389.6)">s</text><text xml:space="preserve" font-family="HelveticaNeue-Bold,Helvetica Neue" font-weight="bold" font-size="54.4" fill="#FEFFFE" transform="matrix(1.00, 0.00, -0.00, -1.00, 648.4, 389.6)">u</text><text xml:space="preserve" font-family="HelveticaNeue-Bold,Helvetica Neue" font-weight="bold" font-size="54.4" fill="#FEFFFE" transform="matrix(1.00, 0.00, -0.00, -1.00, 680.6, 389.6)"> </text><text xml:space="preserve" font-family="HelveticaNeue-Bold,Helvetica Neue" font-weight="bold" font-size="54.4" fill="#FEFFFE" transform="matrix(1.00, 0.00, -0.00, -1.00, 695.7, 389.6)">Y</text><text xml:space="preserve" font-family="HelveticaNeue-Bold,Helvetica Neue" font-weight="bold" font-size="54.4" fill="#FEFFFE" transform="matrix(1.00, 0.00, -0.00, -1.00, 726.0, 389.6)">o</text><text xml:space="preserve" font-family="HelveticaNeue-Bold,Helvetica Neue" font-weight="bold" font-size="54.4" fill="#FEFFFE" transform="matrix(1.00, 0.00, -0.00, -1.00, 759.2, 389.6)">u</text><text xml:space="preserve" font-family="HelveticaNeue-Bold,Helvetica Neue" font-weight="bold" font-size="54.4" fill="#FEFFFE" transform="matrix(1.00, 0.00, -0.00, -1.00, 791.5, 389.6)">T</text><text xml:space="preserve" font-family="HelveticaNeue-Bold,Helvetica Neue" font-weight="bold" font-size="54.4" fill="#FEFFFE" transform="matrix(1.00, 0.00, -0.00, -1.00, 819.7, 389.6)">u</text><text xml:space="preserve" font-family="HelveticaNeue-Bold,Helvetica Neue" font-weight="bold" font-size="54.4" fill="#FEFFFE" transform="matrix(1.00, 0.00, -0.00, -1.00, 852.0, 389.6)">b</text><text xml:space="preserve" font-family="HelveticaNeue-Bold,Helvetica Neue" font-weight="bold" font-size="54.4" fill="#FEFFFE" transform="matrix(1.00, 0.00, -0.00, -1.00, 885.2, 389.6)">e</text><text xml:space="preserve" font-family="HelveticaNeue-Bold,Helvetica Neue" font-weight="bold" font-size="54.4" fill="#FEFFFE" transform="matrix(1.00, 0.00, -0.00, -1.00, 916.4, 389.6)"> </text><image xlink:href="../../6A47465D-1B58-4D10-B43F-DB14EF29E90C/assets/98D91F87DB520D58A1F89B50EBACD405.png" width="885.00" height="59.00" transform="matrix(1.00, 0.00, -0.00, -1.00, 70.0, 298.0)"></image><text xml:space="preserve" font-family="HelveticaNeue-Bold,Helvetica Neue" font-weight="bold" font-size="54.4" fill="#FEFFFE" transform="matrix(1.00, 0.00, -0.00, -1.00, 71.7, 255.6)">h</text><text xml:space="preserve" font-family="HelveticaNeue-Bold,Helvetica Neue" font-weight="bold" font-size="54.4" fill="#FEFFFE" transform="matrix(1.00, 0.00, -0.00, -1.00, 104.0, 255.6)">t</text><text xml:space="preserve" font-family="HelveticaNeue-Bold,Helvetica Neue" font-weight="bold" font-size="54.4" fill="#FEFFFE" transform="matrix(1.00, 0.00, -0.00, -1.00, 123.1, 255.6)">t</text><text xml:space="preserve" font-family="HelveticaNeue-Bold,Helvetica Neue" font-weight="bold" font-size="54.4" fill="#FEFFFE" transform="matrix(1.00, 0.00, -0.00, -1.00, 142.3, 255.6)">p</text><text xml:space="preserve" font-family="HelveticaNeue-Bold,Helvetica Neue" font-weight="bold" font-size="54.4" fill="#FEFFFE" transform="matrix(1.00, 0.00, -0.00, -1.00, 175.5, 255.6)">s</text><text xml:space="preserve" font-family="HelveticaNeue-Bold,Helvetica Neue" font-weight="bold" font-size="54.4" fill="#FEFFFE" transform="matrix(1.00, 0.00, -0.00, -1.00, 204.7, 255.6)">:</text><text xml:space="preserve" font-family="HelveticaNeue-Bold,Helvetica Neue" font-weight="bold" font-size="54.4" fill="#FEFFFE" transform="matrix(1.00, 0.00, -0.00, -1.00, 219.9, 255.6)">/</text><text xml:space="preserve" font-family="HelveticaNeue-Bold,Helvetica Neue" font-weight="bold" font-size="54.4" fill="#FEFFFE" transform="matrix(1.00, 0.00, -0.00, -1.00, 240.1, 255.6)">/</text><text xml:space="preserve" font-family="HelveticaNeue-Bold,Helvetica Neue" font-weight="bold" font-size="54.4" fill="#FEFFFE" transform="matrix(1.00, 0.00, -0.00, -1.00, 260.2, 255.6)">w</text><text xml:space="preserve" font-family="HelveticaNeue-Bold,Helvetica Neue" font-weight="bold" font-size="54.4" fill="#FEFFFE" transform="matrix(1.00, 0.00, -0.00, -1.00, 304.5, 255.6)">w</text><text xml:space="preserve" font-family="HelveticaNeue-Bold,Helvetica Neue" font-weight="bold" font-size="54.4" fill="#FEFFFE" transform="matrix(1.00, 0.00, -0.00, -1.00, 348.8, 255.6)">w</text><text xml:space="preserve" font-family="HelveticaNeue-Bold,Helvetica Neue" font-weight="bold" font-size="54.4" fill="#FEFFFE" transform="matrix(1.00, 0.00, -0.00, -1.00, 390.1, 255.6)">.</text><text xml:space="preserve" font-family="HelveticaNeue-Bold,Helvetica Neue" font-weight="bold" font-size="54.4" fill="#FEFFFE" transform="matrix(1.00, 0.00, -0.00, -1.00, 405.2, 255.6)">y</text><text xml:space="preserve" font-family="HelveticaNeue-Bold,Helvetica Neue" font-weight="bold" font-size="54.4" fill="#FEFFFE" transform="matrix(1.00, 0.00, -0.00, -1.00, 433.4, 255.6)">o</text><text xml:space="preserve" font-family="HelveticaNeue-Bold,Helvetica Neue" font-weight="bold" font-size="54.4" fill="#FEFFFE" transform="matrix(1.00, 0.00, -0.00, -1.00, 466.7, 255.6)">u</text><text xml:space="preserve" font-family="HelveticaNeue-Bold,Helvetica Neue" font-weight="bold" font-size="54.4" fill="#FEFFFE" transform="matrix(1.00, 0.00, -0.00, -1.00, 498.9, 255.6)">t</text><text xml:space="preserve" font-family="HelveticaNeue-Bold,Helvetica Neue" font-weight="bold" font-size="54.4" fill="#FEFFFE" transform="matrix(1.00, 0.00, -0.00, -1.00, 518.1, 255.6)">u</text><text xml:space="preserve" font-family="HelveticaNeue-Bold,Helvetica Neue" font-weight="bold" font-size="54.4" fill="#FEFFFE" transform="matrix(1.00, 0.00, -0.00, -1.00, 550.4, 255.6)">b</text><text xml:space="preserve" font-family="HelveticaNeue-Bold,Helvetica Neue" font-weight="bold" font-size="54.4" fill="#FEFFFE" transform="matrix(1.00, 0.00, -0.00, -1.00, 583.6, 255.6)">e</text><text xml:space="preserve" font-family="HelveticaNeue-Bold,Helvetica Neue" font-weight="bold" font-size="54.4" fill="#FEFFFE" transform="matrix(1.00, 0.00, -0.00, -1.00, 614.8, 255.6)">.</text><text xml:space="preserve" font-family="HelveticaNeue-Bold,Helvetica Neue" font-weight="bold" font-size="54.4" fill="#FEFFFE" transform="matrix(1.00, 0.00, -0.00, -1.00, 629.9, 255.6)">c</text><text xml:space="preserve" font-family="HelveticaNeue-Bold,Helvetica Neue" font-weight="bold" font-size="54.4" fill="#FEFFFE" transform="matrix(1.00, 0.00, -0.00, -1.00, 661.2, 255.6)">o</text><text xml:space="preserve" font-family="HelveticaNeue-Bold,Helvetica Neue" font-weight="bold" font-size="54.4" fill="#FEFFFE" transform="matrix(1.00, 0.00, -0.00, -1.00, 694.4, 255.6)">m</text><text xml:space="preserve" font-family="HelveticaNeue-Bold,Helvetica Neue" font-weight="bold" font-size="54.4" fill="#FEFFFE" transform="matrix(1.00, 0.00, -0.00, -1.00, 743.7, 255.6)">/</text><text xml:space="preserve" font-family="HelveticaNeue-Bold,Helvetica Neue" font-weight="bold" font-size="54.4" fill="#FEFFFE" transform="matrix(1.00, 0.00, -0.00, -1.00, 763.9, 255.6)">w</text><text xml:space="preserve" font-family="HelveticaNeue-Bold,Helvetica Neue" font-weight="bold" font-size="54.4" fill="#FEFFFE" transform="matrix(1.00, 0.00, -0.00, -1.00, 808.2, 255.6)">a</text><text xml:space="preserve" font-family="HelveticaNeue-Bold,Helvetica Neue" font-weight="bold" font-size="54.4" fill="#FEFFFE" transform="matrix(1.00, 0.00, -0.00, -1.00, 839.4, 255.6)">t</text><text xml:space="preserve" font-family="HelveticaNeue-Bold,Helvetica Neue" font-weight="bold" font-size="54.4" fill="#FEFFFE" transform="matrix(1.00, 0.00, -0.00, -1.00, 858.5, 255.6)">c</text><text xml:space="preserve" font-family="HelveticaNeue-Bold,Helvetica Neue" font-weight="bold" font-size="54.4" fill="#FEFFFE" transform="matrix(1.00, 0.00, -0.00, -1.00, 889.8, 255.6)">h</text><text xml:space="preserve" font-family="HelveticaNeue-Bold,Helvetica Neue" font-weight="bold" font-size="54.4" fill="#FEFFFE" transform="matrix(1.00, 0.00, -0.00, -1.00, 922.0, 255.6)">?</text><g><clipPath id="clip0x7fcb7f985f90"><path d="M 70.7 247.8 L 952.3 247.8 L 952.3 252.5 L 70.7 252.5 Z M 70.7 247.8 "></path></clipPath><g clip-path="url(#clip0x7fcb7f985f90)"><path d="M 37.5 396.7 L 918.0 396.7 " fill="none" stroke="#FEFFFE" stroke-width="2.72" transform="matrix(1.00, 0.00, 0.00, -1.00, 34.2, 646.8)"></path></g></g><image xlink:href="../../6A47465D-1B58-4D10-B43F-DB14EF29E90C/assets/951A9F053BC26AF0B7AE388CB591DE91.png" width="434.00" height="58.00" transform="matrix(1.00, 0.00, -0.00, -1.00, 294.0, 230.0)"></image><text xml:space="preserve" font-family="HelveticaNeue-Bold,Helvetica Neue" font-weight="bold" font-size="54.4" fill="#FEFFFE" transform="matrix(1.00, 0.00, -0.00, -1.00, 298.7, 188.6)">v</text><text xml:space="preserve" font-family="HelveticaNeue-Bold,Helvetica Neue" font-weight="bold" font-size="54.4" fill="#FEFFFE" transform="matrix(1.00, 0.00, -0.00, -1.00, 327.0, 188.6)">=</text><text xml:space="preserve" font-family="HelveticaNeue-Bold,Helvetica Neue" font-weight="bold" font-size="54.4" fill="#FEFFFE" transform="matrix(1.00, 0.00, -0.00, -1.00, 359.6, 188.6)">q</text><text xml:space="preserve" font-family="HelveticaNeue-Bold,Helvetica Neue" font-weight="bold" font-size="54.4" fill="#FEFFFE" transform="matrix(1.00, 0.00, -0.00, -1.00, 392.9, 188.6)">c</text><text xml:space="preserve" font-family="HelveticaNeue-Bold,Helvetica Neue" font-weight="bold" font-size="54.4" fill="#FEFFFE" transform="matrix(1.00, 0.00, -0.00, -1.00, 424.1, 188.6)">f</text><text xml:space="preserve" font-family="HelveticaNeue-Bold,Helvetica Neue" font-weight="bold" font-size="54.4" fill="#FEFFFE" transform="matrix(1.00, 0.00, -0.00, -1.00, 442.2, 188.6)">s</text><text xml:space="preserve" font-family="HelveticaNeue-Bold,Helvetica Neue" font-weight="bold" font-size="54.4" fill="#FEFFFE" transform="matrix(1.00, 0.00, -0.00, -1.00, 471.4, 188.6)">W</text><text xml:space="preserve" font-family="HelveticaNeue-Bold,Helvetica Neue" font-weight="bold" font-size="54.4" fill="#FEFFFE" transform="matrix(1.00, 0.00, -0.00, -1.00, 522.8, 188.6)">B</text><text xml:space="preserve" font-family="HelveticaNeue-Bold,Helvetica Neue" font-weight="bold" font-size="54.4" fill="#FEFFFE" transform="matrix(1.00, 0.00, -0.00, -1.00, 561.1, 188.6)">D</text><text xml:space="preserve" font-family="HelveticaNeue-Bold,Helvetica Neue" font-weight="bold" font-size="54.4" fill="#FEFFFE" transform="matrix(1.00, 0.00, -0.00, -1.00, 601.4, 188.6)">R</text><text xml:space="preserve" font-family="HelveticaNeue-Bold,Helvetica Neue" font-weight="bold" font-size="54.4" fill="#FEFFFE" transform="matrix(1.00, 0.00, -0.00, -1.00, 640.7, 188.6)">h</text><text xml:space="preserve" font-family="HelveticaNeue-Bold,Helvetica Neue" font-weight="bold" font-size="54.4" fill="#FEFFFE" transform="matrix(1.00, 0.00, -0.00, -1.00, 672.9, 188.6)">t</text><text xml:space="preserve" font-family="HelveticaNeue-Bold,Helvetica Neue" font-weight="bold" font-size="54.4" fill="#FEFFFE" transform="matrix(1.00, 0.00, -0.00, -1.00, 692.1, 188.6)">o</text><g><clipPath id="clip0x7fcb7f853bc0"><path d="M 297.7 180.8 L 725.3 180.8 L 725.3 185.5 L 297.7 185.5 Z M 297.7 180.8 "></path></clipPath><g clip-path="url(#clip0x7fcb7f853bc0)"><path d="M 264.5 463.7 L 691.1 463.7 " fill="none" stroke="#FEFFFE" stroke-width="2.72" transform="matrix(1.00, 0.00, 0.00, -1.00, 34.2, 646.8)"></path></g></g><text xml:space="preserve" font-family="HelveticaNeue,Helvetica Neue" font-size="14.0" fill="#EAEAEA" transform="matrix(1.00, 0.00, -0.00, -1.00, 504.2, 13.6)">2</text><text xml:space="preserve" font-family="HelveticaNeue,Helvetica Neue" font-size="14.0" fill="#EAEAEA" transform="matrix(1.00, 0.00, -0.00, -1.00, 512.0, 13.6)">3</text></g></svg>